<svg width="63" height="25" viewBox="0 0 63 25" fill="none" xmlns="http://www.w3.org/2000/svg">
<path d="M19.5698 18.9572C18.7262 18.9562 17.9175 18.6075 17.321 17.9875C16.7245 17.3676 16.389 16.5271 16.388 15.6504H11.3754C11.3779 17.9083 12.242 20.0729 13.7782 21.6694C15.3144 23.266 17.3973 24.164 19.5698 24.1666V18.9572Z" fill="#86D2FF"/>
<path d="M62.9724 0.00195312H57.9598V4.99838H62.9724V0.00195312Z" fill="white"/>
<path d="M16.3888 15.651C16.3887 13.3923 15.5254 11.2262 13.9886 9.62909C12.4519 8.03199 10.3676 7.13475 8.19433 7.13477C6.02105 7.13478 3.93678 8.03204 2.40005 9.62916C0.863311 11.2263 -1.17487e-05 13.3924 1.19915e-10 15.6511H5.01261C5.01261 15.2168 5.09491 14.7868 5.25481 14.3856C5.4147 13.9844 5.64907 13.6199 5.94453 13.3128C6.23998 13.0058 6.59074 12.7622 6.97677 12.596C7.3628 12.4298 7.77655 12.3443 8.19439 12.3443C8.61223 12.3443 9.02597 12.4298 9.412 12.596C9.79803 12.7622 10.1488 13.0058 10.4442 13.3128C10.7397 13.6199 10.9741 13.9844 11.134 14.3856C11.2939 14.7868 11.3762 15.2168 11.3762 15.6511H16.3888L16.3888 15.651Z" fill="url(#paint0_linear_318_1077)"/>
<path d="M31.2334 7.13477V7.8031C29.9877 7.25754 28.6314 7.04074 27.2855 7.17204C25.9397 7.30333 24.6459 7.77863 23.5196 8.55558C22.3934 9.33253 21.4695 10.387 20.8305 11.625C20.1914 12.863 19.857 14.2461 19.857 15.651C19.857 17.0559 20.1914 18.439 20.8305 19.677C21.4695 20.915 22.3934 21.9695 23.5196 22.7464C24.6459 23.5234 25.9397 23.9987 27.2855 24.13C28.6314 24.2613 29.9877 24.0445 31.2334 23.4989V24.1672H36.246V7.13477H31.2334ZM28.0516 18.9577C27.4223 18.9577 26.8071 18.7638 26.2839 18.4004C25.7607 18.0371 25.3528 17.5206 25.112 16.9164C24.8712 16.3121 24.8082 15.6472 24.931 15.0058C25.0538 14.3643 25.3568 13.7751 25.8018 13.3127C26.2468 12.8502 26.8137 12.5353 27.4309 12.4077C28.0482 12.2801 28.6879 12.3456 29.2693 12.5959C29.8507 12.8462 30.3476 13.2701 30.6972 13.8139C31.0468 14.3577 31.2334 14.997 31.2334 15.651C31.2324 16.5277 30.8969 17.3682 30.3004 17.9881C29.7039 18.608 28.8952 18.9567 28.0516 18.9577Z" fill="white"/>
<path d="M45.1547 0.00195312H40.1421V24.1667H45.1547V0.00195312Z" fill="white"/>
<path d="M54.0636 0H49.051V24.1672H54.0636V0Z" fill="white"/>
<path d="M62.9724 7.13477H57.9598V24.1672H62.9724V7.13477Z" fill="white"/>
<path d="M11.3762 0.00195312V15.6504C11.3754 16.5258 11.0406 17.3651 10.4452 17.9843C9.84987 18.6035 9.04254 18.9522 8.20026 18.9537C7.35797 18.9552 6.54946 18.6096 5.95202 17.9925C5.35458 17.3755 5.01696 16.5374 5.0132 15.662C5.01436 15.6572 5.01529 15.6524 5.01599 15.6476C5.01599 15.607 5.00049 15.5681 4.9729 15.5395C4.94531 15.5108 4.9079 15.4947 4.86888 15.4947H0.14709C0.127773 15.4947 0.108645 15.4986 0.0907987 15.5063C0.0729522 15.514 0.0567367 15.5253 0.0430783 15.5395C0.0294198 15.5537 0.018586 15.5705 0.0111955 15.5891C0.003805 15.6076 2.62869e-06 15.6275 5.53789e-06 15.6476C5.53789e-06 15.6486 0.000503903 15.6494 0.000548202 15.6504H5.53789e-06C-0.00124641 16.7696 0.209783 17.8781 0.621028 18.9124C1.03227 19.9468 1.63567 20.8868 2.39671 21.6787C3.15775 22.4705 4.06151 23.0987 5.05632 23.5273C6.05113 23.9559 7.11747 24.1765 8.19437 24.1765C9.27127 24.1765 10.3376 23.9559 11.3324 23.5273C12.3272 23.0987 13.231 22.4705 13.992 21.6787C14.7531 20.8868 15.3565 19.9468 15.7677 18.9124C16.179 17.8781 16.39 16.7696 16.3887 15.6504V0.00195312H11.3762Z" fill="white"/>
<defs>
<linearGradient id="paint0_linear_318_1077" x1="4.8821" y1="11.4002" x2="14.6881" y2="11.4859" gradientUnits="userSpaceOnUse">
<stop offset="0.06" stop-color="white"/>
<stop offset="0.8" stop-color="#86D2FF"/>
</linearGradient>
</defs>
</svg>
