<svg width="743" height="748" viewBox="0 0 743 748" fill="none" xmlns="http://www.w3.org/2000/svg">
<g filter="url(#filter0_d_1810_1786)">
<path fill-rule="evenodd" clip-rule="evenodd" d="M123.673 326.393C128.676 333.755 123.833 342.036 120.786 345.256C128.575 348.323 137.454 350.243 144.931 351.859L144.931 351.859L144.96 351.865C148.901 352.718 153.203 353.664 155.908 354.49C161.689 356.256 168.637 350.381 174.302 345.59C177.595 342.806 180.455 340.388 182.4 340.05C184.816 339.63 186.63 342.801 189.123 347.161C192.093 352.353 196.027 359.231 203.088 363.732C213.48 370.357 241.387 362.199 254.537 357.291C252.613 356.218 253.829 351.329 266.145 344.336C281.541 335.595 284.621 333.405 283.442 327.922C282.959 324.763 279.55 319.973 275.321 314.03L275.321 314.03L275.321 314.03L275.32 314.029L275.32 314.029C272.097 309.5 268.397 304.301 265.153 298.643C258.429 286.919 254.306 288.252 250.112 289.609C249.204 289.903 248.293 290.198 247.351 290.362C242.059 291.282 223.776 293.195 217.522 268.351C215.512 260.367 212.558 252.44 209.362 247.962C205.542 242.609 199.48 240.117 195.189 238.352C193.69 237.736 192.407 237.209 191.511 236.679C189.655 235.158 187.215 236.989 184.513 239.017C182.311 240.67 179.934 242.454 177.558 242.66C174.899 242.891 173.94 244.633 172.729 246.834C171.529 249.013 170.083 251.642 166.492 253.702C164.248 254.99 161.864 256.01 159.587 256.985L159.586 256.986C154.541 259.146 150.017 261.083 148.691 265.204C147.514 268.863 145.256 270.627 141.918 273.237C139.8 274.893 137.246 276.889 134.257 279.926C129.672 284.585 131.062 288.591 132.63 293.111C133.694 296.179 134.841 299.484 134.257 303.39C133.649 307.463 130.56 310.555 127.66 313.459C123.68 317.442 120.055 321.071 123.673 326.393ZM468.617 421.478C484.555 417.633 493.248 412.827 497.595 407.06C500.69 402.952 510.4 398.601 516.779 395.743C519.358 394.587 521.392 393.676 522.226 393.122C524.544 391.584 528.022 387.996 529.471 386.394C530.115 387.035 531.789 388.412 533.334 388.797C535.266 389.277 541.545 386.874 546.374 379.665C550.801 373.058 554.416 375.333 563.914 381.309C564.779 381.853 565.692 382.428 566.659 383.03C577.051 389.493 579.291 388.616 583.471 386.98L583.473 386.98L583.476 386.978L583.483 386.976C583.962 386.788 584.466 386.591 585.012 386.394C588.197 385.241 589.299 387.198 591.335 390.814C592.696 393.229 594.474 396.386 597.569 399.851C605.296 408.501 606.745 409.943 611.575 414.269C614.119 416.547 614.921 420.292 615.886 424.801C616.754 428.853 617.754 433.522 620.268 438.299C625.581 448.391 632.825 453.678 640.07 457.523C643.496 459.341 645.625 463.308 647.736 467.24C650.089 471.622 652.417 475.961 656.491 477.227C664.218 479.63 682.088 481.553 684.986 471.46C687.884 461.367 689.816 465.693 691.747 471.46C693.245 475.931 695.904 479.536 697.923 482.274L697.924 482.275C698.509 483.068 699.041 483.788 699.475 484.436C700.37 485.773 698.257 486.903 695.636 488.304C692.601 489.927 688.885 491.915 688.367 495.009C687.846 498.118 688.448 503.459 688.962 508.025C689.402 511.931 689.778 515.27 689.333 516.156C688.85 517.117 688.608 516.997 687.28 516.336C685.952 515.675 683.537 514.474 678.707 513.272C673.445 511.963 667.609 513.364 662.138 514.678C657.565 515.776 653.247 516.812 649.729 516.156C642.441 514.796 641.168 515.574 633.753 520.102C633.306 520.375 632.837 520.661 632.343 520.962C631.383 521.545 630.571 522.047 629.878 522.475C627.076 524.204 626.22 524.732 625.468 524.614C625.137 524.561 624.827 524.384 624.379 524.129L624.379 524.128C623.814 523.806 623.032 523.36 621.717 522.884C619.501 522.082 615.436 521.029 611.344 519.97L611.344 519.97C605.628 518.49 599.862 516.996 599.018 516.156C598.525 515.666 598.758 514.843 599.091 513.668C599.736 511.385 600.757 507.775 597.569 502.699C592.739 495.01 581.148 498.854 572.455 502.699C563.761 506.544 550.721 507.505 546.374 498.374C544.967 495.418 544.066 492.009 543.196 488.717C543.03 488.085 542.864 487.458 542.696 486.839C541.035 480.719 539.157 475.415 533.817 474.824C530.061 474.409 527.026 475.699 525.18 476.483C522.754 477.514 522.381 477.672 525.124 471.941C527.836 466.274 522.173 463.94 513.864 460.516C507.375 457.842 499.271 454.503 492.282 448.391C487.35 444.078 483.1 440.133 479.399 436.697C471.14 429.03 465.619 423.905 461.372 422.913C463.144 422.694 465.477 422.235 468.617 421.478ZM467.436 536.953L467.399 536.861L467.328 536.689C465.658 532.633 464.112 528.879 463.79 525.506C463.623 523.751 463.776 522.036 464.434 520.386C465.006 518.951 465.932 517.637 467.24 516.42C466.951 515.161 465.821 512.523 462.409 509.73C459.538 507.381 458.017 505.348 457.038 503.249C456.558 502.22 456.224 501.209 455.922 500.209C455.824 499.885 455.732 499.569 455.639 499.252C455.438 498.564 455.238 497.879 454.988 497.131C454.734 496.366 454.362 495.906 453.623 495.322C453.244 495.022 452.798 494.712 452.222 494.312L452.123 494.244C451.512 493.82 450.794 493.318 449.973 492.691C446.663 490.159 441.845 485.694 434.826 475.664C428.717 466.937 425.999 460.826 424.219 456.824L424.219 456.824L424.219 456.823L424.218 456.823C423.947 456.212 423.697 455.65 423.46 455.135C422.545 453.147 421.944 452.163 421.24 451.617C420.627 451.142 419.729 450.856 417.763 450.972C413.214 451.24 409.964 449.626 408.988 446.446C408.08 443.489 409.444 439.975 412.076 437.064C413.211 435.809 413.825 434.744 414.133 433.811C414.436 432.892 414.468 432.021 414.318 431.104C414.163 430.159 413.817 429.169 413.345 428.011C413.201 427.657 413.042 427.281 412.876 426.886L412.875 426.885L412.874 426.882C412.675 426.411 412.466 425.915 412.259 425.403C411.74 425.384 411.213 425.25 410.699 425.058C408.47 424.222 407.243 422.702 406.24 421.459L406.239 421.459C406.149 421.347 406.06 421.237 405.973 421.13C404.918 419.841 403.911 418.754 401.857 418.137C396.573 416.552 388.261 410.14 382.661 398.727L382.657 398.728C380.72 399.449 377.421 400.676 374.001 402.291C371.805 403.328 369.617 404.5 367.784 405.758C365.924 407.033 364.556 408.31 363.853 409.516C363.096 410.814 362.578 412.413 362.148 414.282C361.861 415.532 361.629 416.823 361.384 418.185C361.259 418.884 361.13 419.602 360.988 420.342C360.177 424.588 359.007 429.278 355.753 433.074C353.064 436.212 351.888 440.432 351.83 444.664C351.771 448.904 352.838 452.974 354.42 455.686C356.098 458.564 357.596 459.908 358.99 460.357C360.323 460.787 361.965 460.523 364.282 459.132C365.556 458.368 366.714 457.811 367.768 457.63C368.941 457.428 370.025 457.693 370.881 458.549C371.615 459.283 372.058 460.342 372.402 461.424C372.758 462.542 373.083 463.942 373.451 465.537C374.195 468.76 375.256 473.678 374.528 478.635C373.86 483.188 371.684 487.754 366.566 491.102C372.918 496.44 375.452 504.843 376.944 513.795C377.593 517.691 380.519 520.581 384.018 523.954L384.153 524.084C387.467 527.277 391.235 530.908 392.323 536.079C392.671 537.729 392.857 539.354 392.951 540.924C416.287 534.913 440.452 535.452 454.231 538.405C455.814 538.745 457.275 539.071 458.61 539.369L458.626 539.373L458.636 539.375L458.638 539.375C461.261 539.962 463.362 540.431 465.022 540.699C466.744 540.977 467.726 540.988 468.234 540.849C468.337 540.82 468.39 540.794 468.412 540.78C468.423 540.75 468.445 540.674 468.449 540.522C468.465 539.917 468.204 538.818 467.436 536.953ZM468.408 540.79C468.407 540.792 468.406 540.794 468.405 540.795L468.406 540.793L468.408 540.79ZM468.421 540.774C468.424 540.771 468.426 540.769 468.426 540.769C468.427 540.769 468.425 540.77 468.421 540.774ZM233.558 531.088C235.834 528.686 238.499 525.873 243.914 524.314C247.973 523.145 250 522.284 252.577 521.189C252.852 521.073 253.133 520.953 253.423 520.831C253.428 520.828 253.433 520.826 253.438 520.824C253.925 520.635 254.87 521.842 254.87 528.201C254.87 532.344 253.972 533.635 253.036 534.98C252.157 536.244 251.246 537.555 251.012 541.319C250.7 546.353 255.846 546.497 260.691 546.633C263.328 546.707 265.876 546.779 267.406 547.635C269.577 548.851 269.093 552.378 268.55 556.329C268.008 560.274 267.408 564.642 269.335 567.555C270.167 568.813 271.335 569.55 272.71 569.958C266.679 570.237 263.358 573.016 260.187 575.67L260.054 575.781C257.441 577.967 254.906 580.088 251.012 580.742C250.237 580.872 249.388 581.006 248.486 581.148L248.476 581.15L248.465 581.152L248.46 581.152L248.229 581.189C239.02 582.643 224.54 584.929 224.975 592.82C225.139 595.799 225.639 599.794 226.151 603.882L226.151 603.882L226.151 603.883C226.338 605.371 226.537 606.816 226.729 608.211L226.729 608.212L226.729 608.212C227.559 614.231 228.259 619.307 227.221 622.79C225.941 627.081 213.5 634 213.5 634C213.5 634 203.495 624.84 201.111 622.79C198.727 620.741 195.913 617.951 194.116 616.141C190.654 612.652 190.869 608.867 191.106 604.704C191.297 601.33 191.503 597.707 189.776 593.791C185.919 585.046 175.793 570.956 170.972 568.527C168.804 567.435 167.124 566.735 165.668 566.561C166.439 559.159 159.237 550.859 155.54 547.635C162.713 546.143 168.252 541.944 171.454 536.46C173.416 533.1 173.941 530.463 174.328 528.517C174.893 525.681 175.165 524.314 179.169 524.314C184.569 524.314 197.17 516.909 202.795 513.207C206.072 522.102 210.698 530.63 218.097 533.567C227.627 537.35 230.159 534.676 233.558 531.088ZM419.789 418.063C422.755 416.694 427.987 415.715 433.348 415.593C438.751 415.47 443.842 416.23 446.684 417.979C448.336 418.996 449.012 419.865 449.717 420.769C450.03 421.17 450.348 421.578 450.759 422.01C451.437 422.72 452.266 423.305 453.514 423.602C454.63 423.867 456.005 423.884 457.792 423.679C459.048 424.023 460.54 424.81 462.358 426.097C464.28 427.457 466.466 429.304 469.008 431.592C470.908 433.302 473.019 435.272 475.354 437.451L475.355 437.451L475.359 437.455L475.359 437.455L475.36 437.456C479.187 441.026 483.612 445.154 488.682 449.611C496.066 456.101 504.638 459.648 511.298 462.404C512.228 462.789 513.122 463.158 513.969 463.519C517.524 465.029 520.084 466.296 521.499 467.704C522.167 468.368 522.499 468.991 522.603 469.618C522.708 470.251 522.61 471.072 522.081 472.183C521.46 473.489 520.981 474.525 520.644 475.33C520.325 476.092 520.071 476.787 519.995 477.35C519.959 477.619 519.926 478.093 520.152 478.571C520.439 479.18 520.983 479.481 521.486 479.559C521.892 479.623 522.262 479.545 522.484 479.488C522.734 479.424 522.99 479.331 523.226 479.238C523.497 479.132 523.791 479.007 524.108 478.873C526.02 478.062 528.758 476.902 532.198 477.284C534.373 477.526 535.868 478.694 537.077 480.651C538.329 482.677 539.193 485.425 540.049 488.595L540.049 488.597C540.05 488.621 540.061 488.842 539.792 489.292C539.478 489.817 538.836 490.551 537.632 491.414C535.221 493.144 530.784 495.238 523.059 497.202C514.176 499.461 509.643 499.951 506.854 500.252L506.695 500.269C505.157 500.435 503.928 500.568 502.772 501.007C501.535 501.478 500.475 502.255 499.095 503.497C498.109 504.385 496.206 505.314 493.565 506.285C490.977 507.237 487.898 508.155 484.713 509.104L484.684 509.113L484.684 509.113C481.428 510.084 478.066 511.086 475.139 512.164C473.169 512.89 471.311 513.679 469.781 514.561C469.031 512.552 467.385 509.953 464.295 507.424C461.705 505.305 460.495 503.613 459.737 501.988C459.347 501.154 459.061 500.304 458.773 499.349C458.691 499.076 458.607 498.789 458.52 498.492L458.516 498.478L458.516 498.477C458.308 497.765 458.081 496.99 457.814 496.188C457.324 494.719 456.517 493.813 455.471 492.985C455.015 492.624 454.494 492.263 453.949 491.885L453.948 491.884L453.948 491.884L453.82 491.796C453.215 491.376 452.545 490.907 451.782 490.324C448.762 488.014 444.147 483.789 437.265 473.956C431.326 465.47 428.709 459.588 426.937 455.607L426.937 455.606C426.663 454.989 426.408 454.418 426.165 453.89C425.28 451.967 424.423 450.314 423.063 449.261C421.613 448.138 419.842 447.865 417.588 447.998C413.697 448.226 412.231 446.861 411.835 445.571C411.371 444.059 411.979 441.614 414.285 439.063C415.62 437.586 416.492 436.169 416.962 434.743C417.436 433.303 417.473 431.94 417.257 430.622C417.046 429.333 416.592 428.088 416.103 426.887C415.931 426.463 415.756 426.05 415.582 425.638L415.582 425.637C415.349 425.085 415.116 424.534 414.887 423.955C415.082 423.652 415.227 423.348 415.342 423.1C415.435 422.899 415.517 422.711 415.597 422.528L415.599 422.524L415.599 422.523C415.766 422.143 415.923 421.783 416.146 421.369C416.737 420.272 417.678 419.037 419.789 418.063ZM521.702 476.611C521.702 476.611 521.707 476.61 521.717 476.609C521.706 476.611 521.702 476.612 521.702 476.611ZM522.948 477.745C522.947 477.767 522.944 477.77 522.947 477.748L522.948 477.745ZM249.972 582.465L249.969 582.465L249.964 582.466L249.962 582.466L249.957 582.467L249.951 582.468L249.944 582.469C245.176 583.217 239.174 584.164 234.42 585.9C232.041 586.769 230.102 587.792 228.804 588.989C227.546 590.151 226.943 591.416 227.025 592.908C227.191 595.89 227.698 599.913 228.227 604.111L228.231 604.143C228.738 608.162 229.263 612.327 229.496 615.735C229.613 617.442 229.659 619.005 229.586 620.29C229.549 620.933 229.48 621.538 229.364 622.074C229.252 622.593 229.075 623.145 228.763 623.612C227.5 627 221.487 632.279 214.5 635.5C215.075 636.389 215.553 637.74 215.901 638.722L215.944 638.842L216 639C216.714 641 216.672 642.273 216 644C215.414 645.505 214.62 646.333 213.647 647.347L213.5 647.5C213.412 647.593 213.32 647.688 213.225 647.787C212.022 649.039 210.372 650.755 209.5 652.5C208.817 653.866 209.554 656.26 212 659C213.47 660.646 215.733 662.28 218.358 664.175C219.991 665.355 221.765 666.635 223.575 668.083L223.582 668.089L223.583 668.089L223.583 668.09C226.384 670.33 229.467 672.796 232.663 675.525C233.176 675.673 233.661 675.964 234.092 676.311C234.716 676.815 235.363 677.544 236.009 678.529C237.198 680.337 238.458 683.115 239.599 687.253H271.857C273.105 686.109 274.119 685.005 274.862 684.025C275.715 682.9 276.112 682.065 276.208 681.586C276.455 680.352 277.315 679.593 278.277 679.179C279.184 678.788 280.285 678.647 281.391 678.611C283.589 678.541 286.41 678.882 289.173 679.216L289.173 679.216H289.173H289.174L289.269 679.227C292.109 679.571 294.928 679.909 297.31 679.899C298.496 679.894 299.509 679.802 300.32 679.606C301.14 679.408 301.644 679.13 301.936 678.838C306.205 674.569 309.775 667.673 307.526 660.473C304.89 652.038 307.456 642.103 314.585 637.43C315.974 636.519 316.485 635.415 316.596 634.002C316.717 632.445 316.346 630.601 315.867 628.298L315.842 628.176C315.141 624.805 314.279 620.664 315.456 616.428C316.676 612.033 317.849 608.279 320.324 605.784C322.428 603.662 325.288 602.602 329.326 602.418C328.591 601.276 327.902 600.071 327.228 598.894L327.19 598.827C325.764 596.335 324.389 593.944 322.691 592.049C321.024 590.188 319.119 588.892 316.659 588.503C312.643 587.869 308.766 589.33 305.102 590.742L304.969 590.793C303.077 591.523 301.129 592.274 299.41 592.47C298.499 592.574 297.553 592.538 296.648 592.206C295.72 591.865 294.939 591.25 294.322 590.369C293.306 588.917 292.948 587.116 292.84 585.369C292.731 583.63 292.862 581.741 292.983 579.995L292.986 579.941C293.14 577.723 293.267 575.769 293.032 574.202C292.802 572.672 292.288 571.885 291.45 571.504C290.616 571.125 289.499 570.955 288.087 570.946C286.682 570.937 285.132 571.084 283.464 571.244L283.288 571.261C280.464 571.532 277.223 571.844 274.523 571.125C268.904 571.447 265.846 573.965 262.61 576.652L262.525 576.723C259.879 578.92 257 581.311 252.593 582.046C251.796 582.178 250.926 582.315 250.012 582.459L250.004 582.46L250 582.46L249.998 582.461L249.987 582.462L249.983 582.463L249.982 582.463L249.981 582.463L249.978 582.464L249.972 582.465ZM293.036 493.322C294.253 492.279 294.977 490.499 295.532 488.88C295.779 488.159 296.016 487.391 296.25 486.633L296.379 486.216C296.658 485.313 296.939 484.426 297.25 483.581C297.886 481.856 298.584 480.493 299.459 479.642C300.241 478.881 301.212 478.476 302.715 478.758C305.839 479.344 307.596 480.922 309.969 483.053L309.97 483.054C310.243 483.299 310.523 483.55 310.814 483.809C313.656 486.328 317.225 489.098 324.004 490.663C330.492 492.161 335.277 492.828 339.496 492.433C343.77 492.032 347.344 490.553 351.441 487.992C353.162 486.917 354.408 486.441 355.351 486.304C356.238 486.175 356.92 486.336 357.581 486.702C358.3 487.101 359.019 487.755 359.921 488.696C360.18 488.966 360.458 489.264 360.752 489.58L360.752 489.581C361.426 490.304 362.189 491.123 363.025 491.927C363.508 492.392 364.028 492.865 364.593 493.335C370.107 497.931 372.525 505.392 374.007 514.285C374.833 519.241 378.496 522.77 381.781 525.935L381.952 526.1C385.433 529.455 388.527 532.499 389.41 536.693C389.847 538.772 390.008 540.845 390.046 542.87C390.076 544.435 390.032 545.953 389.989 547.428L389.986 547.524V547.525V547.525V547.525V547.525V547.526V547.526V547.526C389.918 549.851 389.851 552.144 390.153 554.115C390.465 556.148 391.202 558.066 392.932 559.412C394.029 560.266 394.595 560.847 394.843 561.241C394.911 561.35 394.939 561.418 394.949 561.451C394.868 561.603 394.567 561.939 393.686 562.489C392.848 563.012 391.701 563.602 390.201 564.352C389.32 564.793 388.603 565.262 388.111 565.803C387.582 566.384 387.244 567.137 387.384 567.995C387.506 568.75 387.961 569.3 388.295 569.639C388.63 569.978 389.033 570.286 389.339 570.52L389.374 570.547C389.597 570.718 389.776 570.855 389.924 570.982C389.155 571.519 388.344 571.904 387.382 572.357L387.341 572.376C385.989 573.011 384.413 573.752 382.815 575.176C381.196 576.618 379.626 578.691 378.1 581.934C376.212 585.947 373.621 589.003 371.171 591.045C369.946 592.066 368.774 592.818 367.765 593.309C366.727 593.814 365.97 593.989 365.546 593.989C364.605 593.989 363.902 594.483 363.434 595.011C362.981 595.521 362.65 596.166 362.393 596.786C361.889 598.007 361.509 599.564 361.177 600.922L361.16 600.993C360.829 602.345 360.551 603.463 360.247 604.204C359.777 603.845 359.152 603.323 358.369 602.668L358.321 602.627C356.559 601.151 354.208 599.181 351.942 597.87C350.801 597.21 349.576 596.654 348.38 596.449C347.154 596.24 345.817 596.385 344.718 597.327C343.516 598.358 342.516 599.925 341.659 601.268L341.587 601.381C341.039 602.238 340.53 603.033 339.998 603.726C339.464 604.422 338.969 604.932 338.489 605.252C338.035 605.555 337.621 605.674 337.182 605.641C336.718 605.606 336.06 605.389 335.162 604.715C334.549 604.256 333.962 603.672 333.384 602.972C332.121 601.443 331.004 599.499 329.776 597.353L329.736 597.283C328.354 594.868 326.838 592.218 324.91 590.067C322.934 587.86 320.452 586.091 317.124 585.566C312.254 584.797 307.686 586.558 304.161 587.917L304.031 587.968C301.968 588.763 300.369 589.367 299.072 589.516C298.455 589.586 298.009 589.537 297.675 589.415C297.364 589.3 297.059 589.09 296.763 588.666C296.21 587.876 295.909 586.725 295.813 585.19C295.718 583.664 295.834 581.96 295.959 580.152L295.966 580.046C296.11 577.958 296.267 575.69 295.978 573.766C295.679 571.772 294.841 569.779 292.683 568.797C291.29 568.164 289.685 567.982 288.106 567.972C286.535 567.962 284.843 568.124 283.224 568.279L283.224 568.279L283.224 568.279L283.18 568.284C280.041 568.585 277.247 568.831 275.111 568.201C273.96 567.862 273.08 567.287 272.454 566.348C271.69 565.202 271.368 563.674 271.347 561.811C271.325 559.948 271.601 557.936 271.883 555.895L271.896 555.801L271.896 555.801C272.165 553.86 272.446 551.83 272.353 550.124C272.259 548.398 271.753 546.513 269.952 545.512C268.501 544.706 266.533 544.488 264.718 544.388C263.87 544.341 263.064 544.32 262.273 544.299H262.273L262.272 544.298H262.272H262.271H262.271H262.271H262.271C261.189 544.269 260.137 544.241 259.051 544.151C257.221 543.998 255.837 543.689 254.958 543.12C254.55 542.856 254.271 542.548 254.092 542.173C253.909 541.791 253.785 541.247 253.835 540.452C253.952 538.579 254.239 537.425 254.561 536.621C254.866 535.859 255.223 535.349 255.666 534.715L255.742 534.608C256.228 533.912 256.782 533.091 257.185 531.855C257.583 530.639 257.81 529.104 257.81 526.951C257.81 523.658 257.567 521.564 257.206 520.272C257.194 520.229 257.182 520.187 257.17 520.145L257.154 520.094C257.145 520.064 257.136 520.034 257.126 520.004C259.677 518.723 261.885 517.06 263.909 514.579C266.34 511.599 268.449 507.507 270.625 501.648C273.06 495.092 275.057 489.987 276.861 485.961C279.42 487.719 281.358 489.287 283.003 490.616L283.004 490.617C283.973 491.4 284.84 492.101 285.671 492.71C286.831 493.56 288.02 494.296 289.269 494.506C290.67 494.742 291.909 494.289 293.036 493.322ZM43.5 524C43.6265 523.597 43.6571 523.113 43.6835 522.695C43.6908 522.58 43.6977 522.471 43.7062 522.369C47.7284 525.35 51.2583 528.011 54.4265 530.399L54.5049 530.458C63.2054 537.016 69.2357 541.561 75.1873 544.963C81.2029 548.402 87.1131 550.661 95.6031 552.732C104.621 554.932 110.124 558.5 113.766 562.33C117.431 566.183 119.302 570.386 120.948 574.104L120.951 574.111L120.952 574.114L120.953 574.115C121.276 574.845 121.594 575.563 121.913 576.247C124.545 581.889 129.313 587.232 131.955 589.789C131.644 590.964 131.715 592.225 132.328 593.603C132.795 594.654 132.937 595.313 132.929 595.712C132.923 596.003 132.847 596.138 132.65 596.291C132.364 596.513 131.796 596.767 130.736 596.985C129.702 597.198 128.353 597.348 126.632 597.47C124.733 597.606 123.174 598.057 121.983 598.878C120.757 599.724 120.035 600.884 119.708 602.195C119.09 604.665 119.878 607.663 120.87 610.39C121.852 613.091 122.749 616.322 122.583 619.039C122.501 620.373 122.168 621.488 121.549 622.35C120.945 623.19 119.984 623.912 118.41 624.332C116.134 624.939 114.613 625.85 113.527 627.127C112.519 628.313 111.984 629.72 111.488 631.024L111.447 631.131C110.623 633.295 109.685 635.755 106.818 638.622C105.798 639.643 104.809 640.61 103.848 641.551L103.77 641.627L103.769 641.628C103.083 642.299 102.411 642.956 101.755 643.608C97.1555 648.168 93.3008 652.428 90.607 658.972C87.4607 666.614 81.3083 671.675 73.2922 673.737C70.3902 669.033 70.3733 664.156 70.3857 659.108L70.3862 658.924C70.4011 653.115 70.4169 646.92 64.6494 642.017C59.7988 637.893 56.7053 633.94 54.949 630.602C53.167 627.216 52.8445 624.632 53.2141 623.153C53.3321 622.682 53.6832 621.999 54.3374 621.044C54.9748 620.115 55.8005 619.066 56.7504 617.86L56.8447 617.741C59.9253 613.831 64.1639 608.452 65.1559 602.168C66.0418 596.557 62.1668 592.1 57.8168 589.156C53.4121 586.176 47.9547 584.334 44.4362 584.063C41.2916 583.822 37.5853 583.101 34.8945 581.531C33.5669 580.756 32.5567 579.816 31.9463 578.692C31.3478 577.591 31.0707 576.2 31.3907 574.386C32.2051 569.771 30.9772 563.88 28.8982 558.335C26.8034 552.748 23.7518 547.267 20.6608 543.402C20.2007 542.827 20.0287 542.314 20.0041 541.851C19.9788 541.373 20.1047 540.824 20.4427 540.184C21.142 538.859 22.6114 537.407 24.6294 535.922C28.6309 532.978 34.1398 530.365 37.6786 528.69L37.7608 528.651L37.7618 528.65C38.974 528.077 40.0063 527.588 40.5925 527.253C42.1791 526.346 43.1022 525.267 43.5 524ZM112.329 470.856L112.331 470.725C112.336 470.42 112.34 470.129 112.34 469.845C112.34 466.356 110.175 460.943 96.1671 453.795C93.2832 456.577 89.4821 457.833 85.9828 457.762C82.1854 457.684 78.4398 456.014 76.7507 452.635C75.8119 450.757 75.2041 450.682 75.0484 450.675C74.8855 450.667 74.6304 450.711 74.2141 450.9C73.7922 451.092 73.3359 451.368 72.753 451.724L72.628 451.801C71.2332 452.656 69.2095 453.895 66.7132 453.591C63.6194 456.865 58.1344 460.192 52.4245 462.99C46.2725 466.003 39.6012 468.525 34.7715 469.796C33.9197 470.02 33.5143 470.231 33.3429 470.353C33.4387 470.602 33.6984 471.016 34.2468 471.659C34.8063 472.314 35.5403 473.066 36.427 473.974L36.482 474.031C40.4754 478.119 46.8909 484.686 48.2805 494.971C49.3965 503.231 48.7566 508.942 47.5827 512.88C46.6289 516.08 45.3386 518.052 44.4499 519.212C48.9145 522.512 52.7846 525.429 56.2195 528.018C65.0143 534.647 70.896 539.077 76.6657 542.375C82.3891 545.647 88.0268 547.816 96.3093 549.837C105.811 552.155 111.842 555.982 115.925 560.275C119.966 564.524 122.012 569.146 123.649 572.844L123.672 572.897C123.999 573.636 124.307 574.33 124.613 574.986C126.847 579.776 130.848 584.448 133.405 587.031C133.895 586.382 134.446 585.76 134.978 585.16L135.065 585.062C136.385 583.573 137.767 582.005 138.811 579.916C140.309 576.919 142.273 573.595 144.48 571.595C145.586 570.593 146.917 569.771 148.42 569.669C150.013 569.56 151.458 570.277 152.676 571.647C153.311 572.362 153.735 572.629 153.963 572.717C154.113 572.775 154.154 572.756 154.222 572.721C154.369 572.647 154.609 572.451 154.955 572.005C155.293 571.57 155.634 571.028 156.044 570.374L156.083 570.312C156.705 569.32 157.474 568.093 158.453 567.114C159.366 566.201 160.311 565.506 161.359 565.084C161.911 564.862 162.468 564.726 163.034 564.664C162.934 561.747 161.604 558.614 159.729 555.69C157.788 552.663 155.384 550.048 153.602 548.417C149.86 549.091 145.75 549.092 141.361 548.28C133.716 546.863 130.27 540.067 129.056 533.04C127.834 525.961 128.727 518.023 130.283 513.095C131.703 508.598 132.431 501.38 131.472 495.085C130.993 491.942 130.11 489.139 128.772 487.041C127.452 484.973 125.728 483.635 123.493 483.229C118.254 482.276 115.268 480.485 113.717 478.019C112.247 475.68 112.292 473.029 112.326 471L112.329 470.856ZM117.629 347.307C108.455 356.36 98.3153 354.93 86.7274 351.119C79.4157 348.714 77.102 339.29 75.2984 331.943C74.2436 327.647 73.3633 324.062 71.7597 323.007C69.4397 321.48 67.8079 323.757 65.3212 327.225C63.1501 330.254 60.3274 334.192 55.8263 337.301C55.2126 337.725 54.521 338.195 53.7673 338.707C42.6612 346.255 18.0897 362.956 31.202 375.895C37.1158 381.731 41.4793 383.403 45.7476 385.037C51.5852 387.273 57.2447 389.441 66.4485 402.102C82.3819 424.02 80.9334 429.261 73.691 436.408C72.52 437.564 71.3996 438.632 70.3663 439.617C65.0088 444.725 61.9961 447.598 66.4485 448.796C68.6885 449.399 70.4991 448.307 72.0976 447.343C74.2892 446.021 76.0821 444.939 78.0364 448.796C80.69 454.034 90.1886 454.572 95.3167 448.796C96.7203 447.216 97.7965 445.162 98.3153 442.602C99.9387 434.592 103.745 435.416 107.533 436.235C109.378 436.634 111.219 437.032 112.8 436.408C115.383 435.388 115.617 430.824 115.794 427.382C115.947 424.39 116.057 422.247 117.629 424.02C121.008 427.831 135.01 437.837 144.667 424.02C147.39 420.124 149.383 417.061 150.777 414.49C154.327 407.942 153.99 404.583 151.909 398.766C149.655 392.463 152.664 389.045 155.702 385.593C156.568 384.609 157.437 383.623 158.186 382.566C161.566 377.801 161.083 363.984 158.186 359.695C157.457 358.615 155.563 357.716 152.875 356.869C150.155 356.012 146.621 355.208 142.658 354.323L141.86 354.145L141.859 354.145L141.859 354.145C134.355 352.471 125.445 350.483 117.629 347.307Z" fill="url(#paint0_linear_1810_1786)"/>
</g>
<g filter="url(#filter1_i_1810_1786)">
<path fill-rule="evenodd" clip-rule="evenodd" d="M514.596 18.4614C465.027 -1.18209 453.348 0.311254 451.178 0.75664C449.008 1.20203 452.119 8.69517 464.56 13.4267C477 18.1583 480.107 24.2407 475.743 24.7409C474.577 24.8747 472.746 25.4352 470.762 26.0427C465.324 27.7078 458.735 29.7255 461.516 24.2726C465.311 16.8302 458.381 16.3889 457.293 21.8638C456.815 24.2734 455.56 26.1532 454.414 27.8703C452.956 30.0548 451.674 31.9761 452.388 34.3905C453.663 38.7029 453.376 43.1102 450.889 46.1616C448.403 49.213 447.346 51.237 456.069 60.741C464.791 70.245 461.69 77.4884 456.049 78.9285C451.885 79.9916 452.907 82.0209 453.986 84.1616C454.368 84.921 454.758 85.6945 454.926 86.4437C455.566 89.3053 452.139 96.3333 447.978 87.0226C445.7 81.9269 445.071 75.698 444.517 70.2048C444.058 65.6609 443.65 61.6204 442.402 59.1411C440.659 55.679 436.891 56.1304 433.657 56.518C431.775 56.7434 430.073 56.9473 429.056 56.3458C428.67 56.1176 428.25 55.8976 427.809 55.667C425.092 54.2457 421.608 52.4226 420.743 45.798C419.737 38.0985 416.656 39.0695 412.537 41.0443C411.888 41.3555 411.322 41.6538 410.825 41.9156C408.169 43.3154 407.495 43.6709 406.71 39.3601C406.074 35.8633 407.962 34.7756 409.78 33.728C410.622 33.2426 411.45 32.7658 412.004 32.0619C413.318 30.3947 410.24 30.5817 407.656 30.7386C406.795 30.7909 405.989 30.8399 405.419 30.8157C404.013 30.7561 401.233 32.1807 398.159 33.7559C396.248 34.7354 394.223 35.7731 392.344 36.5485C388.985 37.9344 388.404 40.1824 387.864 42.2729C387.616 43.2329 387.376 44.1596 386.88 44.9545C385.304 47.4803 379.763 46.6411 378.749 42.7832C378.022 40.0157 371.339 40.2724 365.958 40.479C363.838 40.5604 361.921 40.6341 360.649 40.5119C356.152 40.0796 352.861 42.788 354.715 44.9486C355.164 45.4717 356.03 46.0612 357.025 46.7382C360.141 48.8577 364.515 51.834 361.272 56.3087C360.307 57.641 359.408 58.7497 358.636 59.7023C355.986 62.9711 354.825 64.4022 357.575 66.7239C359.417 68.2793 359.46 71.5262 359.504 74.8888C359.545 78.0081 359.587 81.2268 361.068 83.2871C362.92 85.8626 362.868 86.0288 362.515 87.1702C362.281 87.926 361.914 89.1096 361.881 91.7037C361.796 98.2152 364.579 110.745 369.93 118.965C375.282 127.184 390.628 142.557 400.855 141.7C411.081 140.844 414.632 143.842 416.887 148.801C419.143 153.759 433.941 155.917 440.395 150.979C444.929 147.509 444.725 149.666 444.462 152.437C444.351 153.61 444.229 154.893 444.453 155.906C444.811 157.529 446.481 157.521 448.234 157.513C450.157 157.505 452.18 157.496 452.676 159.639C453.175 161.792 451.379 166.161 449.404 170.97C447.618 175.314 445.686 180.017 445.164 183.769C444.473 188.736 445.34 188.658 449.313 188.3C451.664 188.088 455.102 187.778 459.949 188.358C472.004 189.801 474.126 206.993 475.986 222.058C476.138 223.286 476.288 224.499 476.441 225.689C478.476 241.478 485.126 254.401 491.729 254.627C494.796 254.732 495.717 256.032 496.86 257.646C498.178 259.507 499.792 261.786 505.335 263.129C515.682 265.636 539.824 257.349 546.579 245.572C553.21 234.011 568.862 227.945 578.502 224.21L579.033 224.004C583.969 222.089 586.365 218.375 588.405 215.212C590.327 212.233 591.934 209.742 595.052 209.704C597.95 209.67 599.976 211.615 602.098 213.65C604.683 216.132 607.409 218.748 612.024 218.08C612.798 217.968 613.587 217.859 614.382 217.749C622.207 216.669 630.485 215.527 628.851 210.787C628.081 208.554 626.331 207.958 624.906 207.472C622.998 206.821 621.67 206.369 624.042 202.456C627.177 197.285 626.175 195.774 623.561 191.831C622.719 190.562 621.71 189.041 620.619 187.065C618.238 182.755 615.188 181.337 612.337 180.013C609.82 178.843 607.458 177.745 605.848 174.792C604.458 172.243 603.661 169.053 602.836 165.756C601.623 160.908 600.352 155.827 597.056 152.202C591.517 146.11 585.042 145.406 584.013 149.231C582.985 153.056 584.243 158.389 589.319 156.669C594.394 154.95 587.218 170.202 582.397 164.302C579.566 160.838 578.714 157.902 578.073 155.698C577.623 154.147 577.278 152.958 576.423 152.201C575.616 151.486 574.002 151.82 571.832 152.27C568.432 152.974 563.668 153.961 558.503 151.643C550.04 147.846 529.035 146.848 523.049 149.093C517.063 151.338 499.218 153.363 503.149 141.601C507.08 129.839 500.806 124.576 495.071 124.454C493.006 124.41 490.228 125.59 487.33 126.82C482.184 129.006 476.658 131.353 474.058 127.298C473.378 126.237 472.73 125.379 472.176 124.645C469.419 120.994 468.991 120.428 478.568 113.385C490.069 104.925 499.989 85.6661 502.267 79.0998C503.374 75.9091 505.92 75.1297 508.803 74.2473C511.853 73.3138 515.28 72.265 517.777 68.1238C522.634 60.0682 534.571 28.5362 514.596 18.4614ZM239.957 198.313C243.619 194.895 246.713 193.022 249.269 192.543C250.513 192.31 251.619 192.408 252.632 192.812C253.653 193.219 254.668 193.974 255.661 195.188C256.963 196.78 257.96 198.424 258.945 200.052L259.047 200.22C261.165 203.725 263.349 207.338 268.503 208.131C270.345 208.415 271.994 208.362 273.52 208.312L273.566 208.311C275.718 208.241 277.713 208.183 280.226 208.884C282.749 209.589 285.892 211.092 290.178 214.306C298.929 220.871 309.133 218.423 315.538 216.887L315.695 216.849C317.192 216.49 318.44 216.192 319.468 216.035C320.552 215.869 321.1 215.913 321.33 215.999C321.827 216.185 322.36 216.668 322.959 217.633C323.553 218.59 324.082 219.801 324.686 221.195L324.708 221.246L324.708 221.246C325.334 222.688 326.034 224.304 326.92 225.72C327.818 227.159 328.987 228.528 330.62 229.344C332.086 230.077 334.362 230.631 336.904 230.949C339.484 231.271 342.475 231.368 345.441 231.11C348.398 230.853 351.398 230.237 353.957 229.092C356.515 227.948 358.746 226.219 359.941 223.68C362.125 219.037 361.813 215.195 361.622 212.847L361.621 212.83C361.576 212.277 361.544 211.873 361.542 211.548L361.587 211.557C361.635 211.566 361.688 211.577 361.745 211.589C362.232 211.698 362.894 212.143 363.78 213.163C364.637 214.152 365.512 215.447 366.501 216.916L366.537 216.969C367.766 218.794 369.153 220.854 370.745 222.524C372.353 224.21 374.321 225.663 376.752 226.011C377.828 226.164 378.762 226.271 379.552 226.362L379.557 226.362C380.701 226.493 381.449 226.581 381.975 226.709C382.153 226.752 382.266 226.792 382.334 226.82C382.336 226.907 382.328 227.059 382.286 227.303C382.183 227.901 381.931 228.752 381.508 230.024C380.471 233.132 379.323 238.747 379.259 243.51C379.227 245.865 379.455 248.21 380.234 249.956C380.632 250.849 381.217 251.682 382.081 252.238C382.973 252.811 384.017 252.995 385.133 252.823C387.169 252.51 388.662 251.965 389.813 251.544L389.83 251.538C391.301 251.001 391.901 250.827 392.565 250.982C393.267 251.147 394.315 251.768 396.221 253.847C398.032 255.824 400.391 256.698 402.749 257.073C405.057 257.44 407.51 257.348 409.643 257.268H409.643L409.712 257.266C411.522 257.198 413.058 257.145 414.306 257.303C415.567 257.463 416.18 257.801 416.483 258.204C417.079 258.999 417.854 260.613 418.923 262.867L418.952 262.927C420.585 266.369 422.754 270.94 425.594 274.603C428.432 278.266 432.21 281.367 437.105 281.144C438.306 281.09 439.482 281.023 440.618 280.959L440.622 280.959C445.346 280.692 449.231 280.485 452.115 281.145C453.517 281.465 454.565 281.969 455.323 282.681C456.067 283.379 456.638 284.378 456.922 285.889C457.561 289.296 457.728 293.813 457.321 297.881C457.07 300.387 456.608 302.642 455.951 304.328C455.26 306.102 454.509 306.855 453.943 307.044C451.687 307.796 444.365 310.319 437.585 314.312C434.196 316.308 430.872 318.711 428.378 321.501C425.884 324.292 424.129 327.579 424.129 331.3C424.129 337.773 423.603 339.68 422.542 341.176C422.067 341.846 421.481 342.444 420.639 343.303L420.639 343.303L420.638 343.304C420.423 343.524 420.191 343.761 419.94 344.021C418.745 345.255 417.271 346.859 415.482 349.286C413.58 351.868 412.91 354.182 413.006 356.327C413.098 358.412 413.915 360.164 414.599 361.563L414.708 361.786C415.389 363.178 415.84 364.099 415.893 364.992C415.935 365.715 415.712 366.632 414.223 367.909C409.394 372.048 396.616 380.883 388.704 386.219C388.959 384.314 389.099 382.316 389.07 380.354C389.022 377.162 388.524 373.938 387.232 371.353C386.125 369.14 384.699 367.832 382.852 367.608C381.18 367.404 379.585 368.175 378.355 368.852C377.934 369.083 377.544 369.31 377.174 369.525L377.173 369.525C376.314 370.025 375.558 370.464 374.76 370.766C373.72 371.159 372.97 371.163 372.268 370.742C371.08 370.029 369.975 369.253 368.844 368.458L368.8 368.427C367.698 367.651 366.564 366.853 365.374 366.146C362.926 364.69 360.18 363.578 356.607 363.578C355.102 363.578 354.08 363.403 353.304 363.118C352.547 362.84 351.941 362.427 351.307 361.819C350.707 361.244 350.124 360.54 349.36 359.617L349.36 359.616L349.096 359.298C348.218 358.239 347.159 356.987 345.745 355.572C342.653 352.48 339.134 351.681 335.476 351.296C334.51 351.194 333.545 351.12 332.57 351.045L332.569 351.045H332.568C329.79 350.833 326.93 350.614 323.741 349.728C321.968 349.235 321.027 348.239 320.52 346.925C319.975 345.515 319.899 343.646 320.166 341.476C320.431 339.33 321.01 337.046 321.632 334.886C321.861 334.09 322.102 333.293 322.334 332.528L322.334 332.527C322.711 331.281 323.063 330.118 323.298 329.178C323.748 327.377 323.536 325.74 322.609 324.485C321.699 323.255 320.289 322.647 318.853 322.487C316.017 322.17 312.552 323.509 310.27 326.325C308.746 328.206 305.779 329.106 301.367 328.94C297.243 328.785 292.235 327.71 286.887 326.096C286.483 324.566 285.661 322.977 284.641 321.354C283.395 319.369 281.749 317.174 279.936 314.786C279.754 314.546 279.57 314.304 279.383 314.059L279.369 314.04C275.833 309.389 271.663 303.903 268.05 297.313C263.802 289.566 260.27 286.491 256.666 285.942C254.898 285.673 253.3 286.051 251.918 286.482C251.458 286.625 251.036 286.768 250.636 286.903L250.636 286.904C249.749 287.204 248.967 287.469 248.107 287.625C245.543 288.092 239.815 288.554 234 285.762C228.262 283.007 222.18 276.96 219.04 263.913C217.153 256.076 214.466 249.991 211.489 245.224C219.169 242.661 226.63 238.749 232.072 234.25C235.015 231.818 237.428 229.164 238.944 226.401C240.466 223.625 241.121 220.662 240.386 217.719C239.725 215.077 238.896 212.848 238.184 210.933L238.176 210.912C237.115 208.061 236.415 206.109 236.504 204.26C236.586 202.56 237.367 200.731 239.957 198.313ZM386.638 389.4L386.638 389.401L387.463 390.64L387.807 390.411L387.959 390.309C387.533 392.129 387.015 393.766 386.461 395.052C386.156 395.76 385.822 396.403 385.463 396.92C385.395 397.016 385.321 397.117 385.24 397.219C385.082 396.894 384.926 396.563 384.773 396.228L383.504 396.81C383.475 396.825 383.447 396.838 383.419 396.849L383.422 396.855C383.63 397.31 383.843 397.757 384.059 398.195C384.556 397.972 384.945 397.59 385.24 397.219C390.571 408.209 398.387 413.987 402.713 415.285C405.624 416.159 407.099 417.803 408.279 419.245L408.393 419.384L408.501 419.517C409.555 420.811 410.302 421.728 411.745 422.269C412.056 422.386 412.239 422.418 412.329 422.425C412.307 422.455 412.295 422.467 412.293 422.469C412.297 422.466 412.302 422.462 412.307 422.459C412.311 422.457 412.315 422.454 412.32 422.452C412.323 422.45 412.327 422.448 412.33 422.446C412.34 422.442 412.351 422.437 412.363 422.433C412.379 422.428 412.39 422.426 412.39 422.426L412.385 422.427L412.376 422.427C412.365 422.427 412.349 422.427 412.329 422.425C412.377 422.359 412.477 422.202 412.638 421.853C412.667 421.791 412.697 421.722 412.73 421.648C412.758 421.586 412.787 421.52 412.817 421.45C413.002 421.029 413.242 420.483 413.525 419.958C414.367 418.393 415.75 416.648 418.542 415.359C422.029 413.749 427.72 412.742 433.282 412.616C438.802 412.49 444.634 413.22 448.246 415.443C450.397 416.767 451.573 418.274 452.331 419.245C452.559 419.536 452.749 419.779 452.916 419.955C453.269 420.325 453.61 420.564 454.204 420.705C454.871 420.863 455.921 420.912 457.707 420.69C459.446 420.473 461.782 420.014 464.988 419.237C481.292 415.284 489.792 410.42 493.936 404.894C495.224 403.176 497.374 401.536 499.759 400.041C502.177 398.524 504.979 397.069 507.699 395.756C510.009 394.64 512.287 393.614 514.241 392.734L514.806 392.48L515.25 392.279C517.477 391.273 519.006 390.558 519.622 390.147C521.435 388.938 524.093 386.313 525.815 384.491C526.066 384.663 526.267 384.806 526.424 384.926C526.612 385.069 526.702 385.15 526.735 385.179L526.746 385.189C526.748 385.191 526.749 385.192 526.749 385.191L526.739 385.178L526.728 385.163L526.718 385.148C526.693 385.114 526.622 385.011 526.566 384.853C526.513 384.705 526.42 384.36 526.555 383.942C526.617 383.752 526.709 383.593 526.817 383.464C526.833 383.444 526.849 383.425 526.866 383.407L526.835 383.386L526.788 383.438C526.521 383.736 526.19 384.094 525.815 384.491C525.09 383.997 523.942 383.273 522.18 382.245C520.37 381.189 519.171 379.287 518.343 377.098C517.507 374.886 516.976 372.183 516.63 369.249C515.941 363.4 515.958 356.318 515.975 349.743L515.975 349.682C515.977 348.674 515.98 347.677 515.98 346.695C515.98 345.036 515.987 343.497 515.993 342.078H517.483L515.993 342.071V342.07V342.064V342.057C516.018 336.732 516.028 333.252 515.684 331.244C515.567 330.561 515.434 330.226 515.359 330.078C515.405 330.064 515.437 330.058 515.458 330.055C515.477 330.057 515.489 330.054 515.489 330.054C515.489 330.054 515.486 330.053 515.48 330.053C515.475 330.053 515.468 330.053 515.458 330.055C515.453 330.054 515.447 330.053 515.442 330.052C515.432 330.05 515.422 330.047 515.41 330.043C515.379 330.032 515.341 330.012 515.3 329.977L515.299 329.977C515.299 329.977 515.299 329.977 515.3 329.978L515.302 329.981L515.302 329.981C515.309 329.992 515.329 330.021 515.359 330.078C515.338 330.084 515.315 330.091 515.289 330.101C515.267 330.108 515.243 330.117 515.217 330.128C515.182 330.142 515.142 330.158 515.098 330.178C511.114 331.959 504.134 332.793 494.332 326.601C490.59 324.238 487.976 321.575 485.701 319.258L485.672 319.228C481.954 315.442 479.216 312.705 473.704 312.429C468.912 312.189 465.831 311.606 463.496 309.52C462.352 308.499 461.468 307.19 460.626 305.606C460.259 304.915 459.89 304.151 459.505 303.314L459.428 303.212C459.226 303.992 458.994 304.731 458.729 305.411C457.971 307.357 456.786 309.238 454.887 309.871C452.675 310.609 445.598 313.052 439.098 316.88C435.846 318.795 432.809 321.016 430.602 323.487C428.395 325.957 427.109 328.566 427.109 331.301C427.109 337.739 426.642 340.549 424.973 342.901C424.348 343.782 423.553 344.592 422.689 345.472L422.688 345.473C422.489 345.676 422.287 345.882 422.082 346.094C420.949 347.264 419.569 348.765 417.882 351.054C416.309 353.19 415.924 354.849 415.984 356.195C416.046 357.602 416.595 358.86 417.277 360.255C417.334 360.373 417.394 360.493 417.455 360.617C418.054 361.827 418.778 363.291 418.868 364.817C418.981 366.717 418.149 368.47 416.163 370.172C410.645 374.902 395.345 385.375 387.959 390.309C388.005 390.114 388.049 389.917 388.093 389.718L386.638 389.4ZM312.586 328.203C314.276 326.118 316.769 325.254 318.525 325.45C319.386 325.546 319.93 325.873 320.215 326.259C320.482 326.62 320.705 327.28 320.41 328.458C320.19 329.34 319.877 330.37 319.521 331.546L319.521 331.547L319.52 331.549C319.285 332.324 319.031 333.162 318.772 334.063C318.137 336.264 317.506 338.728 317.212 341.113C316.921 343.474 316.938 345.919 317.743 348.001C318.585 350.179 320.251 351.852 322.946 352.6C326.442 353.572 329.715 353.821 332.554 354.037C333.473 354.107 334.346 354.174 335.166 354.26C338.583 354.62 341.27 355.31 343.64 357.681C344.956 358.997 345.945 360.165 346.805 361.202L346.974 361.406L347.078 361.531C347.816 362.424 348.516 363.27 349.248 363.972C350.104 364.793 351.05 365.465 352.279 365.917C353.489 366.361 354.887 366.559 356.609 366.559C359.49 366.559 361.709 367.433 363.853 368.708C364.944 369.357 365.998 370.099 367.132 370.896C368.251 371.684 369.442 372.522 370.737 373.299C372.518 374.367 374.311 374.123 375.816 373.554C376.86 373.16 377.95 372.526 378.888 371.981L378.888 371.981L378.889 371.981L378.889 371.98C379.211 371.794 379.515 371.617 379.792 371.464C381.045 370.776 381.87 370.491 382.494 370.567C382.943 370.622 383.689 370.928 384.569 372.687C385.58 374.709 386.049 377.428 386.093 380.4C386.137 383.35 385.761 386.429 385.182 389.084C384.762 391.011 384.243 392.672 383.726 393.873C383.465 394.477 383.223 394.924 383.017 395.22C382.898 395.391 382.821 395.469 382.793 395.496C382.6 395.572 382.331 395.672 382 395.796L381.728 395.897C379.833 396.601 376.295 397.915 372.729 399.6C370.457 400.673 368.114 401.922 366.1 403.303C364.112 404.665 362.315 406.244 361.28 408.017C360.3 409.698 359.7 411.637 359.245 413.617C358.943 414.935 358.688 416.35 358.435 417.756L358.435 417.757L358.435 417.758L358.433 417.766C358.311 418.445 358.189 419.122 358.063 419.785C357.261 423.982 356.196 427.982 353.492 431.138C350.223 434.952 348.917 439.919 348.851 444.625C348.786 449.324 349.953 453.943 351.847 457.19C353.644 460.271 355.621 462.404 358.075 463.195C360.59 464.007 363.168 463.278 365.815 461.689C367.025 460.964 367.79 460.652 368.272 460.569C368.625 460.508 368.695 460.579 368.768 460.652L368.774 460.658C368.971 460.855 369.242 461.318 369.564 462.331C369.876 463.308 370.172 464.576 370.548 466.209C371.294 469.441 372.219 473.862 371.581 478.205C370.995 482.195 369.092 486.136 364.307 489.005C363.848 488.535 363.422 488.078 363.003 487.628L363.002 487.627C362.691 487.294 362.385 486.964 362.07 486.636C361.148 485.673 360.166 484.731 359.025 484.099C357.827 483.434 356.491 483.129 354.921 483.357C353.407 483.578 351.758 484.282 349.862 485.467C346.015 487.872 342.886 489.124 339.217 489.468C335.493 489.818 331.092 489.244 324.672 487.762C318.543 486.347 315.409 483.904 312.789 481.581C312.509 481.333 312.231 481.082 311.953 480.83C309.619 478.72 307.249 476.579 303.263 475.831C300.795 475.368 298.848 476.081 297.381 477.508C296.006 478.845 295.122 480.74 294.454 482.553C294.114 483.478 293.813 484.43 293.532 485.336L293.399 485.766C293.165 486.525 292.944 487.242 292.713 487.916C292.135 489.602 291.618 490.615 291.097 491.062C290.487 491.585 290.112 491.628 289.762 491.57C289.259 491.485 288.558 491.134 287.43 490.308C286.78 489.833 286.007 489.209 285.099 488.477L285.099 488.477C283.316 487.039 281.018 485.186 278.138 483.229C280.562 478.275 282.661 475.407 285.053 473.493C288.036 471.106 289.122 467.435 288.642 463.461C288.165 459.511 286.149 455.158 282.796 451.031C280.445 448.137 279.615 445.812 278.832 443.623C278.602 442.977 278.375 442.343 278.115 441.709C277.54 440.31 276.798 438.952 275.451 437.726C274.436 436.804 273.135 436.008 271.42 435.301C274.533 430.034 278.808 422.682 282.518 416.05C284.561 412.399 286.439 408.955 287.858 406.193C288.567 404.814 289.169 403.592 289.621 402.594C290.055 401.634 290.404 400.769 290.541 400.153C290.888 398.591 290.474 396.663 289.718 394.769C288.939 392.817 287.703 390.67 286.119 388.567C282.959 384.375 278.28 380.19 272.737 378.078C267.819 376.204 266.099 373.986 265.352 371.944C264.955 370.859 264.797 369.728 264.683 368.508C264.662 368.278 264.642 368.041 264.622 367.798C264.539 366.814 264.448 365.739 264.228 364.746L264.152 364.407L264.152 364.406C263.944 363.463 263.76 362.633 263.546 361.935C263.299 361.13 262.982 360.39 262.449 359.721C261.434 358.445 259.832 357.706 257.492 356.782C257.341 356.674 257.238 356.529 257.194 356.339C257.141 356.109 257.13 355.61 257.584 354.759C258.525 352.995 261.203 350.23 267.506 346.487C268.068 346.153 268.613 345.83 269.142 345.516L269.152 345.51L269.153 345.51C276.031 341.428 280.189 338.961 282.718 336.853C284.12 335.684 285.104 334.563 285.794 333.267C286.451 332.033 286.793 330.729 287.049 329.253C292.141 330.737 297.05 331.761 301.257 331.919C305.906 332.094 310.138 331.224 312.586 328.203ZM161.082 357.512C161.708 357.329 162.327 357.105 162.936 356.85C165.597 355.733 168.2 353.958 170.588 352.129C171.788 351.21 172.953 350.262 174.055 349.36L174.377 349.097L174.377 349.096L174.378 349.095C175.366 348.287 176.296 347.525 177.175 346.843C178.15 346.085 179.027 345.453 179.804 344.987C180.599 344.51 181.194 344.265 181.616 344.189C182.193 344.084 182.886 344.294 183.996 345.533C184.987 346.639 186.017 348.232 187.314 350.237L187.321 350.249L187.325 350.255L187.376 350.333C187.513 350.545 187.653 350.761 187.796 350.982C190.788 355.596 194.898 361.658 201.873 366.308C204.904 368.33 209.119 369.134 213.738 369.234C218.395 369.334 223.663 368.72 228.964 367.725C239.291 365.786 249.934 362.363 256.808 359.717C258.945 360.581 259.697 361.048 260.119 361.577C260.331 361.844 260.51 362.196 260.697 362.808C260.874 363.385 261.031 364.091 261.248 365.073L261.319 365.392C261.492 366.17 261.561 366.984 261.643 367.94L261.643 367.944L261.643 367.948C261.666 368.215 261.69 368.493 261.717 368.784C261.836 370.062 262.02 371.507 262.553 372.967C263.668 376.015 266.168 378.763 271.676 380.862C276.559 382.722 280.817 386.483 283.739 390.36C285.195 392.292 286.287 394.21 286.951 395.874C287.638 397.595 287.782 398.833 287.633 399.506C287.571 399.784 287.347 400.391 286.906 401.364C286.483 402.299 285.907 403.472 285.208 404.831C283.812 407.546 281.954 410.955 279.918 414.595C276.104 421.411 271.687 428.999 268.562 434.28C246.626 426.855 233.031 423.674 224.666 422.987C220.42 422.639 217.372 422.918 215.225 423.721C212.991 424.556 211.722 425.971 211.202 427.706C210.968 428.486 210.488 428.99 209.732 429.349C208.918 429.736 207.8 429.939 206.421 429.998C205.057 430.056 203.565 429.969 202.053 429.861C201.889 429.849 201.725 429.837 201.56 429.825L201.379 429.811C200.118 429.718 198.845 429.624 197.734 429.624C196.246 429.624 194.804 430.404 193.57 431.338C192.294 432.302 191.02 433.601 189.837 434.988C188.359 436.719 186.963 438.656 185.812 440.404C183.941 434.925 181.088 430.99 176.602 427.46C171.625 423.544 164.632 420.128 154.905 415.526C156.311 412.641 157.021 410.215 157.121 407.798C157.235 405.017 156.532 402.405 155.448 399.333C154.401 396.365 154.605 394.209 155.333 392.409C156.098 390.518 157.474 388.912 159.068 387.077L159.092 387.05C159.966 386.043 160.902 384.965 161.718 383.8C162.764 382.305 163.435 380.232 163.847 378.028C164.264 375.795 164.439 373.289 164.407 370.822C164.375 368.355 164.135 365.888 163.704 363.729C163.279 361.606 162.643 359.642 161.737 358.284C161.552 358.005 161.33 357.749 161.082 357.512ZM153.506 418.159C152.092 420.641 150.219 423.516 147.822 426.992C145.191 430.809 142.189 433.08 139.046 434.186C135.912 435.288 132.768 435.187 129.917 434.483C124.974 433.261 120.737 430.187 118.495 427.993C118.456 428.5 118.426 429.08 118.394 429.726L118.39 429.792C118.302 431.543 118.191 433.739 117.745 435.641C117.314 437.482 116.442 439.616 114.381 440.441C112.323 441.264 110.032 440.759 108.283 440.374L108.093 440.332C106.014 439.877 104.578 439.617 103.428 440.112C102.437 440.54 101.197 441.79 100.394 445.805C99.9586 447.984 99.1668 449.865 98.1171 451.449C111.889 458.599 115.318 464.671 115.318 469.845V469.854L115.306 470.897L115.306 470.906C115.269 473.104 115.278 474.906 116.237 476.433C117.152 477.888 119.172 479.415 124.024 480.298C127.25 480.884 129.622 482.837 131.282 485.439C132.923 488.012 133.901 491.261 134.415 494.636C135.442 501.376 134.681 509.055 133.122 513.993C131.699 518.5 130.854 525.956 131.99 532.533C133.135 539.162 136.143 544.283 141.902 545.35C146.23 546.152 150.204 546.086 153.74 545.356C160.72 543.915 166.064 539.875 169.143 534.638C171.026 531.438 171.515 529.01 171.915 527.031C172.011 526.552 172.102 526.1 172.207 525.67C172.471 524.58 172.882 523.367 174.011 522.534C175.093 521.734 176.557 521.489 178.371 521.489C179.488 521.489 181.138 521.094 183.189 520.339C185.204 519.598 187.472 518.561 189.774 517.394C193.878 515.312 198.014 512.854 200.89 511.021C200.07 508.749 199.308 506.472 198.577 504.282L198.544 504.184C197.701 501.659 196.899 499.258 196.08 497.074C195.25 494.859 194.42 492.914 193.54 491.329C192.652 489.731 191.767 488.598 190.871 487.912C181.884 481.039 175.387 463.126 183.751 443.894C182.078 437.519 179.409 433.459 174.76 429.8C170.071 426.111 163.378 422.83 153.506 418.159ZM117.407 426.864C117.401 426.86 117.4 426.859 117.406 426.863L117.407 426.864ZM187.162 445.34C189.56 441.181 195.314 432.864 199.15 432.864C200.165 432.864 201.331 432.95 202.552 433.04C207.097 433.375 212.402 433.767 213.535 429.984C214.974 425.186 224.564 422.786 268.201 437.662C274.037 439.591 274.901 442.016 276.088 445.35C276.851 447.493 277.749 450.013 280.189 453.018C286.422 460.696 287.381 468.854 282.586 472.693C279.846 474.887 277.575 478.178 274.969 483.73C273.015 487.894 270.872 493.329 268.201 500.526C264.044 511.724 260.314 515.67 254.31 518.193C254.305 518.195 254.3 518.197 254.295 518.2C251.86 519.222 249.051 520.011 245.688 520.956C244.911 521.174 244.104 521.401 243.266 521.64C237.773 523.211 235.33 526.066 233.277 528.465C230.312 531.931 228.161 534.444 218.81 530.758C211.452 527.857 207.204 519.456 203.945 510.67C202.994 508.106 202.127 505.509 201.292 503.007C198.835 495.645 196.65 489.1 193.396 486.609C185.244 480.371 179.01 463.576 187.162 445.34ZM162.47 567.848C161.904 568.076 161.285 568.494 160.558 569.221C159.84 569.939 159.233 570.894 158.567 571.957L158.545 571.992C158.162 572.604 157.746 573.266 157.307 573.832C156.868 574.398 156.302 575.007 155.566 575.379C154.752 575.791 153.834 575.861 152.891 575.497C152.027 575.164 151.226 574.502 150.448 573.626C149.68 572.762 149.076 572.61 148.622 572.641C148.077 572.678 147.36 573.005 146.48 573.802C144.715 575.402 142.955 578.286 141.474 581.248C140.244 583.709 138.627 585.533 137.327 587L137.294 587.038C136.197 588.275 135.439 589.15 135.036 590.006C134.694 590.732 134.619 591.424 135.049 592.391C135.575 593.574 135.929 594.715 135.906 595.775C135.881 596.942 135.399 597.925 134.478 598.641C133.648 599.288 132.539 599.655 131.335 599.902C130.104 600.155 128.598 600.316 126.843 600.441C125.267 600.554 124.282 600.91 123.673 601.33C123.099 601.726 122.765 602.242 122.597 602.917C122.221 604.419 122.674 606.635 123.669 609.371C124.673 612.132 125.761 615.853 125.555 619.22C125.451 620.927 125.008 622.637 123.967 624.087C122.911 625.558 121.327 626.636 119.177 627.21C117.321 627.705 116.391 628.356 115.796 629.056C115.151 629.815 114.776 630.757 114.23 632.19L114.228 632.194C113.362 634.469 112.243 637.408 108.924 640.728C107.892 641.76 106.894 642.737 105.935 643.674L105.934 643.676L105.932 643.678L105.931 643.679L105.93 643.679C100.376 649.114 96.1911 653.23 93.3607 660.105C89.9605 668.364 83.4 673.917 75.0168 676.352C77.338 680.05 78.8868 683.738 79.8114 687.258C79.8659 688.097 79.9807 689.12 80.1689 690.238C80.9345 694.784 82.9157 700.896 87 702.501C90.9365 704.048 93.4831 703.106 96.6721 701.926C98.636 701.199 100.843 700.382 103.769 700.001C106.629 699.629 109.776 699.672 113.123 699.719C118.763 699.797 124.972 699.884 131.335 698.001C138.842 695.78 148.937 697.67 161.481 700.019C165.88 700.842 170.58 701.722 175.575 702.501C188.539 704.522 191.484 703.139 195.816 701.103C197.913 700.118 200.335 698.98 204.377 698.001C208.079 697.105 212.586 696.701 217.043 696.301C225.839 695.513 234.437 694.742 236.247 690.238C236.589 689.387 236.689 688.402 236.501 687.258C235.482 683.774 234.42 681.541 233.519 680.171C232.993 679.371 232.544 678.897 232.22 678.636C232.016 678.471 231.896 678.417 231.862 678.403L231.411 678.382L231.022 678.049C227.761 675.253 224.607 672.73 221.713 670.415L221.609 670.332C217.018 666.659 212.999 663.444 210.427 660.564C207.897 657.73 206.229 654.608 207.821 651.423C208.974 649.117 210.465 647.558 211.67 646.299L211.703 646.265C212.86 645.055 213.612 644.239 213.992 643.264C214.332 642.389 214.429 641.2 213.708 639.182C213.295 638.026 212.53 636.748 211.453 635.366C209.238 632.52 205.924 629.5 202.431 626.483C201.63 625.792 200.819 625.1 200.012 624.412L200.006 624.407C197.348 622.141 194.738 619.915 192.709 617.885C189.008 614.183 188.92 610.133 189.11 606.269C189.129 605.865 189.152 605.463 189.174 605.063C189.369 601.594 189.557 598.249 187.933 594.594C186.006 590.258 182.472 584.519 178.788 579.544C176.95 577.063 175.096 574.8 173.41 573.016C171.69 571.195 170.257 569.996 169.265 569.5C167.033 568.383 165.509 567.782 164.294 567.638C163.594 567.555 163.018 567.628 162.47 567.848Z" fill="url(#paint1_linear_1810_1786)"/>
</g>
<path d="M319.227 398.163L321.092 390.084C328.683 357.186 348.452 328.385 376.42 309.473V309.473" stroke="url(#paint2_linear_1810_1786)" stroke-width="1.65777"/>
<path d="M319.227 398.163L317.236 396.383C290.673 372.641 251.616 369.313 221.419 388.217V388.217" stroke="url(#paint3_linear_1810_1786)" stroke-width="1.65777"/>
<path opacity="0.8" d="M319.227 398.162H284.43C230.737 398.162 179.433 420.361 142.675 459.499V459.499" stroke="url(#paint4_linear_1810_1786)" stroke-width="1.65777"/>
<path d="M319.227 398.162V398.162C276.482 413.896 243.088 448.032 228.295 491.112L228.05 491.826" stroke="url(#paint5_linear_1810_1786)" stroke-width="1.65777"/>
<path d="M319.227 398.162V398.162C232.109 419.447 168.388 494.095 161.042 583.474L160.91 585.075" stroke="url(#paint6_linear_1810_1786)" stroke-width="1.65777"/>
<path opacity="0.8" d="M319.227 398.162L329.093 391.736C369.044 365.71 418.04 357.525 464.282 369.151V369.151" stroke="url(#paint7_linear_1810_1786)" stroke-width="1.65777"/>
<path opacity="0.8" d="M489.148 171.049L483.787 180.073C449.855 237.183 442.723 306.317 464.282 369.152V369.152" stroke="url(#paint8_linear_1810_1786)" stroke-width="1.65777" stroke-linecap="round"/>
<path opacity="0.8" d="M489.148 171.049V171.049C437.348 200.153 398.001 247.22 378.539 303.359L376.42 309.472" stroke="url(#paint9_linear_1810_1786)" stroke-width="1.65777" stroke-linecap="round"/>
<path opacity="0.8" d="M489.148 171.049L449.112 183.109C346.396 214.05 262.883 289.279 221.419 388.216V388.216" stroke="url(#paint10_linear_1810_1786)" stroke-width="1.65777" stroke-linecap="round"/>
<path opacity="0.8" d="M489.148 171.049V171.049C361.53 227.013 266.871 338.729 232.62 473.804L228.05 491.827" stroke="url(#paint11_linear_1810_1786)" stroke-width="1.65777" stroke-linecap="round"/>
<path opacity="0.8" d="M489.148 171.049L478.816 172.291C276.171 196.653 132.906 382.487 160.91 584.662V584.662" stroke="url(#paint12_linear_1810_1786)" stroke-width="1.65777" stroke-linecap="round"/>
<path opacity="0.8" d="M489.148 171.049L464.679 173.166C305.838 186.91 174.888 303.354 142.675 459.5V459.5" stroke="url(#paint13_linear_1810_1786)" stroke-width="1.65777" stroke-linecap="round"/>
<circle cx="319.227" cy="398.163" r="11.6044" fill="white"/>
<circle cx="489.148" cy="171.878" r="11.6044" fill="white"/>
<circle cx="464.282" cy="369.153" r="6.63107" fill="white"/>
<circle cx="376.42" cy="309.473" r="6.63107" fill="white"/>
<circle cx="228.05" cy="491.826" r="6.63107" fill="white"/>
<circle cx="142.675" cy="459.5" r="6.63107" fill="white"/>
<circle cx="221.419" cy="388.217" r="6.63107" fill="white"/>
<circle cx="160.91" cy="584.662" r="6.63107" fill="white"/>
<path d="M298.601 416.564V427.768H296.218V420.408L293.062 426.002H291.695L288.546 420.408V427.768H286.156V416.564H288.804L292.382 422.697L295.953 416.564H298.601ZM307.363 427.361C306.686 427.715 305.925 427.893 305.081 427.893C304.238 427.893 303.477 427.715 302.8 427.361C302.123 427.002 301.581 426.476 301.175 425.783C300.769 425.09 300.566 424.286 300.566 423.369C300.566 422.458 300.769 421.653 301.175 420.955C301.581 420.257 302.123 419.731 302.8 419.377C303.482 419.018 304.243 418.838 305.081 418.838C305.925 418.838 306.686 419.018 307.363 419.377C308.045 419.731 308.589 420.257 308.995 420.955C309.402 421.653 309.605 422.458 309.605 423.369C309.605 424.286 309.402 425.09 308.995 425.783C308.589 426.476 308.045 427.002 307.363 427.361ZM305.081 425.838C305.779 425.838 306.344 425.611 306.777 425.158C307.214 424.705 307.436 424.109 307.441 423.369C307.446 422.64 307.225 422.046 306.777 421.588C306.334 421.124 305.769 420.893 305.081 420.893C304.394 420.893 303.826 421.124 303.378 421.588C302.936 422.046 302.714 422.64 302.714 423.369C302.714 424.109 302.936 424.705 303.378 425.158C303.821 425.611 304.389 425.838 305.081 425.838ZM315.726 425.838C316.226 425.838 316.668 425.71 317.054 425.455C317.445 425.2 317.726 424.851 317.898 424.408L320.038 424.713C319.793 425.702 319.278 426.481 318.491 427.049C317.705 427.611 316.783 427.893 315.726 427.893C314.887 427.893 314.127 427.715 313.445 427.361C312.767 427.002 312.226 426.476 311.82 425.783C311.413 425.085 311.21 424.281 311.21 423.369C311.21 422.458 311.413 421.653 311.82 420.955C312.226 420.257 312.767 419.731 313.445 419.377C314.127 419.018 314.887 418.838 315.726 418.838C316.783 418.838 317.705 419.122 318.491 419.689C319.278 420.252 319.793 421.031 320.038 422.025L317.898 422.33C317.726 421.887 317.445 421.538 317.054 421.283C316.668 421.023 316.226 420.893 315.726 420.893C315.038 420.893 314.471 421.124 314.023 421.588C313.58 422.046 313.359 422.64 313.359 423.369C313.359 424.098 313.58 424.692 314.023 425.15C314.471 425.609 315.038 425.838 315.726 425.838ZM329.472 418.971L325.565 423.361L329.472 427.76H327.23L324.073 424.596V427.768H321.94V418.971H324.073V422.127L327.23 418.971H329.472ZM337.835 423.354C338.309 423.395 338.686 423.611 338.968 424.002C339.254 424.387 339.397 424.867 339.397 425.439C339.397 425.835 339.314 426.187 339.147 426.494C338.986 426.796 338.765 427.038 338.483 427.221C338.202 427.403 337.887 427.541 337.538 427.635C337.189 427.723 336.817 427.768 336.421 427.768H331.46V418.971H336.257C336.653 418.971 337.02 419.015 337.358 419.104C337.702 419.192 338.009 419.33 338.28 419.518C338.551 419.7 338.765 419.942 338.921 420.244C339.077 420.546 339.155 420.895 339.155 421.291C339.155 421.833 339.043 422.283 338.819 422.643C338.595 423.002 338.267 423.239 337.835 423.354ZM333.6 420.369V422.643H335.741C336.069 422.643 336.345 422.538 336.569 422.33C336.793 422.117 336.905 421.843 336.905 421.51C336.905 421.171 336.793 420.898 336.569 420.689C336.35 420.476 336.074 420.369 335.741 420.369H333.6ZM335.905 426.26C336.233 426.26 336.507 426.158 336.725 425.955C336.949 425.747 337.061 425.476 337.061 425.143C337.061 424.804 336.949 424.528 336.725 424.314C336.507 424.101 336.233 423.994 335.905 423.994H333.6V426.26H335.905ZM348.37 418.971H350.495V427.768H348.37L348.315 426.166C348.065 426.708 347.693 427.132 347.198 427.439C346.708 427.742 346.107 427.893 345.393 427.893C344.117 427.893 343.065 427.476 342.237 426.643C341.414 425.804 341.003 424.713 341.003 423.369C341.003 422.702 341.112 422.088 341.331 421.525C341.555 420.958 341.859 420.479 342.245 420.088C342.635 419.692 343.102 419.385 343.643 419.166C344.185 418.947 344.768 418.838 345.393 418.838C346.107 418.838 346.711 418.992 347.206 419.299C347.706 419.601 348.083 420.023 348.339 420.564L348.37 418.971ZM343.901 425.197C344.333 425.63 344.904 425.846 345.612 425.846C346.326 425.846 346.901 425.617 347.339 425.158C347.776 424.695 347.992 424.09 347.987 423.346C347.977 422.617 347.753 422.025 347.315 421.572C346.878 421.114 346.313 420.885 345.62 420.885C344.917 420.885 344.346 421.106 343.909 421.549C343.471 421.992 343.253 422.598 343.253 423.369C343.253 424.15 343.469 424.76 343.901 425.197Z" fill="white"/>
<path d="M418.562 199.42C419.281 199.42 419.903 199.24 420.429 198.881C420.96 198.516 421.335 197.99 421.554 197.303L423.906 197.67C423.593 198.899 422.953 199.863 421.984 200.561C421.015 201.258 419.875 201.607 418.562 201.607C417.77 201.607 417.031 201.477 416.343 201.217C415.661 200.951 415.067 200.576 414.562 200.092C414.057 199.607 413.661 199.003 413.375 198.279C413.088 197.555 412.945 196.756 412.945 195.881C412.945 195.006 413.088 194.209 413.375 193.49C413.661 192.766 414.057 192.162 414.562 191.678C415.067 191.188 415.661 190.813 416.343 190.553C417.031 190.287 417.77 190.154 418.562 190.154C419.875 190.154 421.013 190.506 421.976 191.209C422.945 191.907 423.588 192.87 423.906 194.1L421.554 194.459C421.335 193.777 420.96 193.256 420.429 192.896C419.903 192.532 419.281 192.35 418.562 192.35C417.604 192.35 416.822 192.66 416.218 193.279C415.619 193.899 415.32 194.766 415.32 195.881C415.32 196.995 415.619 197.865 416.218 198.49C416.822 199.11 417.604 199.42 418.562 199.42ZM432.964 192.686H435.089V201.482H432.964L432.91 199.881C432.66 200.423 432.287 200.847 431.792 201.154C431.303 201.456 430.701 201.607 429.988 201.607C428.712 201.607 427.66 201.191 426.831 200.357C426.008 199.519 425.597 198.428 425.597 197.084C425.597 196.417 425.706 195.803 425.925 195.24C426.149 194.673 426.454 194.193 426.839 193.803C427.23 193.407 427.696 193.1 428.238 192.881C428.779 192.662 429.363 192.553 429.988 192.553C430.701 192.553 431.305 192.706 431.8 193.014C432.3 193.316 432.678 193.738 432.933 194.279L432.964 192.686ZM428.495 198.912C428.928 199.344 429.498 199.561 430.206 199.561C430.92 199.561 431.495 199.331 431.933 198.873C432.37 198.41 432.587 197.805 432.581 197.061C432.571 196.331 432.347 195.74 431.91 195.287C431.472 194.829 430.907 194.6 430.214 194.6C429.511 194.6 428.941 194.821 428.503 195.264C428.066 195.706 427.847 196.313 427.847 197.084C427.847 197.865 428.063 198.475 428.495 198.912ZM443.249 192.686H445.366V201.482H443.249V197.904H439.585V201.482H437.452V192.686H439.585V196.256H443.249V192.686ZM455.269 192.686L451.362 197.076L455.269 201.475H453.026L449.87 198.311V201.482H447.737V192.686H449.87V195.842L453.026 192.686H455.269ZM464.015 192.686V194.764H461.671V201.482H459.288V194.764H456.936V192.686H464.015ZM465.987 196.045H471.05V198.123H465.987V196.045ZM483.124 190.279V201.482H480.749V192.365H475.694V201.482H473.303V190.279H483.124ZM494.221 197.084C494.221 197.376 494.205 197.615 494.174 197.803H487.463C487.588 198.402 487.851 198.87 488.252 199.209C488.659 199.542 489.14 199.709 489.698 199.709C490.64 199.709 491.31 199.305 491.705 198.498L493.76 199.006C493.479 199.808 492.966 200.443 492.221 200.912C491.476 201.376 490.635 201.607 489.698 201.607C488.864 201.607 488.104 201.423 487.416 201.053C486.734 200.683 486.19 200.152 485.784 199.459C485.383 198.761 485.182 197.969 485.182 197.084C485.182 196.199 485.383 195.41 485.784 194.717C486.19 194.024 486.734 193.49 487.416 193.115C488.104 192.74 488.864 192.553 489.698 192.553C490.536 192.553 491.297 192.74 491.979 193.115C492.666 193.49 493.211 194.024 493.612 194.717C494.018 195.41 494.221 196.199 494.221 197.084ZM489.698 194.459C489.161 194.459 488.692 194.62 488.291 194.943C487.89 195.261 487.622 195.699 487.487 196.256H491.932C491.802 195.678 491.539 195.235 491.143 194.928C490.752 194.615 490.271 194.459 489.698 194.459ZM502.498 192.686V194.764H500.155V201.482H497.772V194.764H495.42V192.686H502.498ZM512.916 197.084C512.916 197.376 512.9 197.615 512.869 197.803H506.158C506.283 198.402 506.546 198.87 506.947 199.209C507.354 199.542 507.835 199.709 508.393 199.709C509.335 199.709 510.005 199.305 510.4 198.498L512.455 199.006C512.174 199.808 511.661 200.443 510.916 200.912C510.171 201.376 509.33 201.607 508.393 201.607C507.559 201.607 506.799 201.423 506.111 201.053C505.429 200.683 504.885 200.152 504.479 199.459C504.078 198.761 503.877 197.969 503.877 197.084C503.877 196.199 504.078 195.41 504.479 194.717C504.885 194.024 505.429 193.49 506.111 193.115C506.799 192.74 507.559 192.553 508.393 192.553C509.231 192.553 509.992 192.74 510.674 193.115C511.361 193.49 511.906 194.024 512.307 194.717C512.713 195.41 512.916 196.199 512.916 197.084ZM508.393 194.459C507.856 194.459 507.387 194.62 506.986 194.943C506.585 195.261 506.317 195.699 506.182 196.256H510.627C510.497 195.678 510.234 195.235 509.838 194.928C509.447 194.615 508.966 194.459 508.393 194.459ZM516.967 192.686L517.014 194.279C517.269 193.738 517.641 193.316 518.131 193.014C518.62 192.706 519.225 192.553 519.943 192.553C520.568 192.553 521.149 192.662 521.685 192.881C522.227 193.1 522.693 193.407 523.084 193.803C523.475 194.193 523.779 194.673 523.998 195.24C524.222 195.803 524.334 196.417 524.334 197.084C524.334 198.428 523.92 199.519 523.092 200.357C522.264 201.191 521.214 201.607 519.943 201.607C519.23 201.607 518.623 201.456 518.123 201.154C517.628 200.852 517.253 200.428 516.998 199.881V204.686H514.81V192.686H516.967ZM517.99 198.873C518.428 199.331 519.001 199.561 519.709 199.561C520.417 199.561 520.988 199.342 521.42 198.904C521.857 198.467 522.076 197.86 522.076 197.084C522.076 196.313 521.857 195.706 521.42 195.264C520.988 194.821 520.417 194.6 519.709 194.6C519.016 194.6 518.451 194.829 518.014 195.287C517.576 195.74 517.355 196.331 517.35 197.061C517.344 197.805 517.558 198.41 517.99 198.873ZM530.588 193.811C531.358 193.811 532.062 193.967 532.697 194.279C533.338 194.587 533.848 195.037 534.228 195.631C534.614 196.219 534.806 196.896 534.806 197.662C534.806 198.423 534.616 199.107 534.236 199.717C533.856 200.321 533.343 200.787 532.697 201.115C532.056 201.443 531.353 201.607 530.588 201.607C530.015 201.607 529.465 201.511 528.939 201.318C528.413 201.126 527.952 200.86 527.556 200.521C527.166 200.183 526.853 199.764 526.619 199.264C526.385 198.764 526.267 198.23 526.267 197.662C526.267 196.652 526.293 195.488 526.345 194.17C526.371 192.883 526.736 191.91 527.439 191.248C528.142 190.581 529.106 190.248 530.33 190.248C530.481 190.248 530.726 190.251 531.064 190.256C531.403 190.261 531.655 190.264 531.822 190.264C531.989 190.258 532.21 190.248 532.486 190.232C532.762 190.217 533.023 190.188 533.267 190.146C533.512 190.1 533.767 190.037 534.033 189.959V191.881C533.767 191.954 533.512 192.014 533.267 192.061C533.028 192.107 532.765 192.139 532.478 192.154C532.192 192.17 531.976 192.18 531.83 192.186C531.684 192.191 531.424 192.191 531.049 192.186C530.679 192.175 530.439 192.17 530.33 192.17C529.642 192.17 529.127 192.324 528.783 192.631C528.444 192.938 528.265 193.451 528.244 194.17C528.244 194.264 528.241 194.339 528.236 194.396C528.95 194.006 529.733 193.811 530.588 193.811ZM532.752 197.662C532.757 197.1 532.549 196.628 532.127 196.248C531.71 195.863 531.197 195.67 530.588 195.67C529.978 195.67 529.465 195.863 529.049 196.248C528.632 196.628 528.424 197.1 528.424 197.662C528.424 198.23 528.632 198.704 529.049 199.084C529.465 199.464 529.978 199.654 530.588 199.654C531.207 199.654 531.72 199.464 532.127 199.084C532.533 198.704 532.741 198.23 532.752 197.662ZM545.451 192.686L541.771 202.365C541.396 203.37 540.787 204.045 539.943 204.389C539.099 204.732 538.151 204.704 537.099 204.303L537.584 202.514C537.771 202.571 537.951 202.61 538.123 202.631C538.295 202.652 538.466 202.641 538.638 202.6C538.815 202.563 538.969 202.493 539.099 202.389C539.235 202.29 539.352 202.139 539.451 201.936C539.55 201.732 539.612 201.488 539.638 201.201L536.474 192.686H538.857L540.951 199.193L543.068 192.686H545.451ZM549.478 192.686L549.525 194.279C549.78 193.738 550.152 193.316 550.642 193.014C551.132 192.706 551.736 192.553 552.455 192.553C553.08 192.553 553.66 192.662 554.197 192.881C554.738 193.1 555.205 193.407 555.595 193.803C555.986 194.193 556.29 194.673 556.509 195.24C556.733 195.803 556.845 196.417 556.845 197.084C556.845 198.428 556.431 199.519 555.603 200.357C554.775 201.191 553.725 201.607 552.455 201.607C551.741 201.607 551.134 201.456 550.634 201.154C550.139 200.852 549.764 200.428 549.509 199.881V204.686H547.322V192.686H549.478ZM550.501 198.873C550.939 199.331 551.512 199.561 552.22 199.561C552.928 199.561 553.499 199.342 553.931 198.904C554.369 198.467 554.587 197.86 554.587 197.084C554.587 196.313 554.369 195.706 553.931 195.264C553.499 194.821 552.928 194.6 552.22 194.6C551.527 194.6 550.962 194.829 550.525 195.287C550.087 195.74 549.866 196.331 549.861 197.061C549.856 197.805 550.069 198.41 550.501 198.873ZM564.005 192.686V194.764H560.818V201.482H558.732V192.686H564.005Z" fill="white"/>
<path d="M360.907 322.301V324.126H358.008V332.104H355.923V324.126H353.011V322.301H360.907ZM368.238 328.241C368.653 328.278 368.983 328.467 369.229 328.809C369.48 329.146 369.605 329.565 369.605 330.066C369.605 330.413 369.532 330.72 369.387 330.989C369.245 331.254 369.052 331.465 368.806 331.625C368.559 331.785 368.284 331.905 367.978 331.987C367.673 332.065 367.347 332.104 367.001 332.104H362.66V324.406H366.857C367.204 324.406 367.525 324.445 367.821 324.522C368.122 324.6 368.391 324.721 368.628 324.885C368.865 325.044 369.052 325.256 369.188 325.521C369.325 325.785 369.393 326.09 369.393 326.437C369.393 326.91 369.295 327.305 369.099 327.619C368.904 327.934 368.616 328.141 368.238 328.241ZM364.533 325.63V327.619H366.406C366.693 327.619 366.935 327.528 367.131 327.346C367.327 327.159 367.425 326.92 367.425 326.628C367.425 326.332 367.327 326.092 367.131 325.91C366.939 325.723 366.698 325.63 366.406 325.63H364.533ZM366.55 330.784C366.837 330.784 367.076 330.695 367.267 330.518C367.463 330.335 367.561 330.098 367.561 329.807C367.561 329.51 367.463 329.269 367.267 329.082C367.076 328.895 366.837 328.802 366.55 328.802H364.533V330.784H366.55ZM378.919 328.255C378.919 328.51 378.905 328.72 378.878 328.884H373.006C373.115 329.408 373.346 329.818 373.697 330.114C374.052 330.406 374.474 330.552 374.961 330.552C375.786 330.552 376.372 330.199 376.718 329.492L378.516 329.937C378.27 330.638 377.821 331.194 377.169 331.604C376.517 332.01 375.781 332.213 374.961 332.213C374.232 332.213 373.567 332.051 372.965 331.728C372.368 331.404 371.892 330.939 371.536 330.333C371.185 329.722 371.01 329.03 371.01 328.255C371.01 327.48 371.185 326.79 371.536 326.184C371.892 325.577 372.368 325.11 372.965 324.782C373.567 324.454 374.232 324.29 374.961 324.29C375.695 324.29 376.36 324.454 376.957 324.782C377.559 325.11 378.035 325.577 378.386 326.184C378.741 326.79 378.919 327.48 378.919 328.255ZM374.961 325.958C374.492 325.958 374.082 326.099 373.731 326.382C373.38 326.66 373.145 327.043 373.027 327.53H376.916C376.802 327.024 376.572 326.637 376.226 326.368C375.884 326.095 375.462 325.958 374.961 325.958ZM382.463 324.406L382.504 325.801C382.728 325.327 383.054 324.958 383.482 324.693C383.91 324.424 384.439 324.29 385.068 324.29C385.615 324.29 386.123 324.386 386.592 324.577C387.066 324.769 387.474 325.037 387.816 325.384C388.158 325.726 388.424 326.145 388.616 326.642C388.812 327.134 388.91 327.672 388.91 328.255C388.91 329.431 388.547 330.385 387.823 331.119C387.098 331.848 386.18 332.213 385.068 332.213C384.444 332.213 383.913 332.081 383.475 331.816C383.042 331.552 382.714 331.181 382.491 330.702V334.906H380.577V324.406H382.463ZM383.359 329.82C383.742 330.221 384.243 330.422 384.863 330.422C385.483 330.422 385.982 330.23 386.36 329.848C386.743 329.465 386.934 328.934 386.934 328.255C386.934 327.58 386.743 327.049 386.36 326.662C385.982 326.275 385.483 326.081 384.863 326.081C384.257 326.081 383.762 326.282 383.379 326.683C382.997 327.079 382.803 327.596 382.798 328.234C382.794 328.886 382.981 329.415 383.359 329.82ZM394.942 326.833C395.612 326.833 396.175 327.079 396.631 327.571C397.091 328.059 397.321 328.69 397.321 329.465C397.321 330.24 397.093 330.873 396.638 331.365C396.182 331.857 395.617 332.104 394.942 332.104H390.56V324.406H392.427V326.833H394.942ZM394.45 330.579C394.751 330.579 395.002 330.477 395.202 330.271C395.403 330.062 395.503 329.784 395.503 329.438C395.503 329.091 395.4 328.813 395.195 328.604C394.995 328.394 394.746 328.289 394.45 328.289H392.427V330.579H394.45Z" fill="white"/>
<path d="M202.057 401.045L198.448 405.509L202.057 410.848H199.883L197.245 407.006L196.103 408.414V410.848H194.011V401.045H196.103V405.7L199.883 401.045H202.057ZM209.293 403.15H211.152V410.848H209.293L209.245 409.446C209.026 409.92 208.7 410.292 208.267 410.561C207.839 410.825 207.313 410.957 206.688 410.957C205.572 410.957 204.651 410.592 203.927 409.863C203.207 409.13 202.847 408.175 202.847 406.999C202.847 406.416 202.942 405.878 203.134 405.386C203.33 404.889 203.596 404.47 203.933 404.128C204.275 403.782 204.683 403.513 205.157 403.321C205.631 403.13 206.141 403.034 206.688 403.034C207.313 403.034 207.841 403.169 208.274 403.438C208.712 403.702 209.042 404.071 209.266 404.545L209.293 403.15ZM205.383 408.599C205.761 408.977 206.26 409.166 206.88 409.166C207.504 409.166 208.008 408.965 208.391 408.564C208.773 408.159 208.962 407.63 208.958 406.979C208.949 406.34 208.753 405.823 208.37 405.427C207.987 405.026 207.493 404.825 206.887 404.825C206.271 404.825 205.772 405.019 205.39 405.406C205.007 405.794 204.815 406.325 204.815 406.999C204.815 407.683 205.004 408.216 205.383 408.599ZM220.692 403.15V410.848H218.873V404.969H215.941C215.941 405.397 215.927 405.812 215.9 406.213C215.872 406.614 215.827 407.029 215.763 407.457C215.699 407.881 215.615 408.271 215.51 408.626C215.41 408.977 215.278 409.307 215.114 409.617C214.949 409.927 214.76 410.182 214.546 410.383C214.336 410.579 214.081 410.722 213.781 410.813C213.484 410.9 213.156 410.911 212.796 410.848V409.029C213.311 409.111 213.664 408.854 213.856 408.257C214.024 407.742 214.113 406.78 214.122 405.372C214.122 405.117 214.12 404.709 214.115 404.148C214.115 403.711 214.115 403.378 214.115 403.15H220.692ZM230.197 403.15L226.977 411.62C226.649 412.5 226.116 413.09 225.378 413.391C224.639 413.691 223.81 413.666 222.889 413.315L223.313 411.75C223.477 411.8 223.634 411.834 223.785 411.853C223.935 411.871 224.086 411.862 224.236 411.825C224.391 411.793 224.525 411.732 224.639 411.641C224.758 411.554 224.86 411.422 224.947 411.244C225.033 411.066 225.088 410.852 225.111 410.602L222.342 403.15H224.427L226.259 408.845L228.112 403.15H230.197ZM236.448 403.15V404.969H233.659V410.848H231.834V403.15H236.448ZM244.224 403.15H246.083V410.848H244.224L244.176 409.446C243.957 409.92 243.631 410.292 243.199 410.561C242.77 410.825 242.244 410.957 241.619 410.957C240.503 410.957 239.582 410.592 238.858 409.863C238.138 409.13 237.778 408.175 237.778 406.999C237.778 406.416 237.873 405.878 238.065 405.386C238.261 404.889 238.527 404.47 238.865 404.128C239.206 403.782 239.614 403.513 240.088 403.321C240.562 403.13 241.073 403.034 241.619 403.034C242.244 403.034 242.772 403.169 243.205 403.438C243.643 403.702 243.973 404.071 244.197 404.545L244.224 403.15ZM240.314 408.599C240.692 408.977 241.191 409.166 241.811 409.166C242.435 409.166 242.939 408.965 243.322 408.564C243.704 408.159 243.894 407.63 243.889 406.979C243.88 406.34 243.684 405.823 243.301 405.427C242.918 405.026 242.424 404.825 241.818 404.825C241.202 404.825 240.703 405.019 240.321 405.406C239.938 405.794 239.746 406.325 239.746 406.999C239.746 407.683 239.936 408.216 240.314 408.599Z" fill="white"/>
<path d="M424.93 381.98H429.92V391.783H427.829V388.557H425.566L423.679 391.783H421.505L423.631 388.256C423.107 388.001 422.688 387.611 422.374 387.087C422.064 386.558 421.909 385.952 421.909 385.269C421.909 384.321 422.2 383.537 422.784 382.917C423.372 382.293 424.087 381.98 424.93 381.98ZM427.829 386.827V383.806H425.333C424.951 383.806 424.632 383.942 424.376 384.216C424.121 384.485 423.994 384.852 423.994 385.316C423.994 385.777 424.121 386.144 424.376 386.417C424.632 386.69 424.951 386.827 425.333 386.827H427.829ZM433.93 384.086L433.971 385.48C434.194 385.007 434.52 384.637 434.948 384.373C435.376 384.104 435.905 383.97 436.534 383.97C437.081 383.97 437.589 384.065 438.058 384.257C438.532 384.448 438.94 384.717 439.282 385.063C439.624 385.405 439.89 385.825 440.082 386.321C440.278 386.813 440.376 387.351 440.376 387.935C440.376 389.11 440.014 390.065 439.289 390.799C438.564 391.528 437.646 391.893 436.534 391.893C435.91 391.893 435.379 391.76 434.941 391.496C434.508 391.232 434.18 390.86 433.957 390.382V394.586H432.043V384.086H433.93ZM434.825 389.5C435.208 389.901 435.709 390.102 436.329 390.102C436.949 390.102 437.448 389.91 437.826 389.527C438.209 389.145 438.4 388.614 438.4 387.935C438.4 387.26 438.209 386.729 437.826 386.342C437.448 385.954 436.949 385.761 436.329 385.761C435.723 385.761 435.228 385.961 434.846 386.362C434.463 386.759 434.269 387.276 434.265 387.914C434.26 388.566 434.447 389.094 434.825 389.5ZM447.721 391.428C447.128 391.738 446.463 391.893 445.725 391.893C444.987 391.893 444.321 391.738 443.729 391.428C443.136 391.113 442.662 390.653 442.307 390.047C441.951 389.441 441.774 388.737 441.774 387.935C441.774 387.137 441.951 386.433 442.307 385.822C442.662 385.212 443.136 384.751 443.729 384.441C444.326 384.127 444.991 383.97 445.725 383.97C446.463 383.97 447.128 384.127 447.721 384.441C448.318 384.751 448.794 385.212 449.15 385.822C449.505 386.433 449.683 387.137 449.683 387.935C449.683 388.737 449.505 389.441 449.15 390.047C448.794 390.653 448.318 391.113 447.721 391.428ZM445.725 390.095C446.336 390.095 446.83 389.896 447.208 389.5C447.591 389.104 447.785 388.582 447.789 387.935C447.794 387.297 447.6 386.777 447.208 386.376C446.821 385.97 446.326 385.768 445.725 385.768C445.123 385.768 444.627 385.97 444.235 386.376C443.847 386.777 443.654 387.297 443.654 387.935C443.654 388.582 443.847 389.104 444.235 389.5C444.622 389.896 445.119 390.095 445.725 390.095ZM455.039 390.095C455.476 390.095 455.864 389.983 456.201 389.76C456.543 389.536 456.789 389.231 456.939 388.844L458.812 389.11C458.598 389.976 458.147 390.658 457.459 391.154C456.77 391.646 455.964 391.893 455.039 391.893C454.305 391.893 453.64 391.738 453.043 391.428C452.45 391.113 451.976 390.653 451.621 390.047C451.265 389.436 451.087 388.732 451.087 387.935C451.087 387.137 451.265 386.433 451.621 385.822C451.976 385.212 452.45 384.751 453.043 384.441C453.64 384.127 454.305 383.97 455.039 383.97C455.964 383.97 456.77 384.218 457.459 384.715C458.147 385.207 458.598 385.888 458.812 386.759L456.939 387.025C456.789 386.638 456.543 386.333 456.201 386.109C455.864 385.882 455.476 385.768 455.039 385.768C454.437 385.768 453.94 385.97 453.548 386.376C453.161 386.777 452.967 387.297 452.967 387.935C452.967 388.573 453.161 389.092 453.548 389.493C453.94 389.894 454.437 390.095 455.039 390.095ZM468.044 384.086V391.783H466.226V385.904H463.293C463.293 386.333 463.279 386.747 463.252 387.148C463.225 387.549 463.179 387.964 463.115 388.393C463.051 388.816 462.967 389.206 462.862 389.562C462.762 389.912 462.63 390.243 462.466 390.553C462.302 390.863 462.113 391.118 461.898 391.318C461.689 391.514 461.434 391.658 461.133 391.749C460.837 391.836 460.508 391.847 460.148 391.783V389.965C460.663 390.047 461.017 389.789 461.208 389.192C461.377 388.677 461.465 387.716 461.475 386.308C461.475 386.052 461.472 385.645 461.468 385.084C461.468 384.646 461.468 384.314 461.468 384.086H468.044ZM476.161 384.086H478.021V391.783H476.161L476.114 390.382C475.895 390.856 475.569 391.227 475.136 391.496C474.708 391.76 474.181 391.893 473.557 391.893C472.44 391.893 471.52 391.528 470.795 390.799C470.075 390.065 469.715 389.11 469.715 387.935C469.715 387.351 469.811 386.813 470.002 386.321C470.198 385.825 470.465 385.405 470.802 385.063C471.144 384.717 471.552 384.448 472.026 384.257C472.5 384.065 473.01 383.97 473.557 383.97C474.181 383.97 474.71 384.104 475.143 384.373C475.58 384.637 475.911 385.007 476.134 385.48L476.161 384.086ZM472.251 389.534C472.63 389.912 473.129 390.102 473.748 390.102C474.373 390.102 474.876 389.901 475.259 389.5C475.642 389.094 475.831 388.566 475.826 387.914C475.817 387.276 475.621 386.759 475.239 386.362C474.856 385.961 474.361 385.761 473.755 385.761C473.14 385.761 472.641 385.954 472.258 386.342C471.875 386.729 471.684 387.26 471.684 387.935C471.684 388.618 471.873 389.151 472.251 389.534ZM485.667 387.921C486.081 387.957 486.412 388.146 486.658 388.488C486.909 388.826 487.034 389.245 487.034 389.746C487.034 390.092 486.961 390.4 486.815 390.669C486.674 390.933 486.48 391.145 486.234 391.305C485.988 391.464 485.712 391.585 485.407 391.667C485.102 391.744 484.776 391.783 484.429 391.783H480.089V384.086H484.286C484.632 384.086 484.953 384.125 485.25 384.202C485.55 384.28 485.819 384.4 486.056 384.564C486.293 384.724 486.48 384.936 486.617 385.2C486.754 385.465 486.822 385.77 486.822 386.116C486.822 386.59 486.724 386.984 486.528 387.299C486.332 387.613 486.045 387.821 485.667 387.921ZM481.962 385.31V387.299H483.835C484.122 387.299 484.363 387.208 484.559 387.025C484.755 386.839 484.853 386.599 484.853 386.308C484.853 386.011 484.755 385.772 484.559 385.59C484.368 385.403 484.126 385.31 483.835 385.31H481.962ZM483.978 390.464C484.265 390.464 484.505 390.375 484.696 390.197C484.892 390.015 484.99 389.778 484.99 389.486C484.99 389.19 484.892 388.949 484.696 388.762C484.505 388.575 484.265 388.481 483.978 388.481H481.962V390.464H483.978ZM496.259 384.086V391.783H494.44V385.904H491.508C491.508 386.333 491.494 386.747 491.467 387.148C491.439 387.549 491.394 387.964 491.33 388.393C491.266 388.816 491.182 389.206 491.077 389.562C490.977 389.912 490.845 390.243 490.681 390.553C490.517 390.863 490.327 391.118 490.113 391.318C489.904 391.514 489.648 391.658 489.348 391.749C489.051 391.836 488.723 391.847 488.363 391.783V389.965C488.878 390.047 489.231 389.789 489.423 389.192C489.591 388.677 489.68 387.716 489.689 386.308C489.689 386.052 489.687 385.645 489.683 385.084C489.683 384.646 489.683 384.314 489.683 384.086H496.259ZM502.715 386.513C503.385 386.513 503.948 386.759 504.404 387.251C504.864 387.739 505.094 388.37 505.094 389.145C505.094 389.919 504.866 390.553 504.411 391.045C503.955 391.537 503.39 391.783 502.715 391.783H498.333V384.086H500.2V386.513H502.715ZM502.223 390.259C502.524 390.259 502.774 390.156 502.975 389.951C503.176 389.742 503.276 389.464 503.276 389.117C503.276 388.771 503.173 388.493 502.968 388.283C502.768 388.074 502.519 387.969 502.223 387.969H500.2V390.259H502.223Z" fill="white"/>
<path d="M129.669 481.9C129.072 482.128 128.428 482.242 127.735 482.242C127.047 482.242 126.402 482.128 125.8 481.9C125.203 481.668 124.684 481.34 124.242 480.916C123.8 480.492 123.453 479.964 123.203 479.33C122.952 478.697 122.827 477.997 122.827 477.231C122.827 476.466 122.952 475.769 123.203 475.14C123.453 474.506 123.8 473.978 124.242 473.554C124.684 473.125 125.203 472.797 125.8 472.569C126.402 472.337 127.047 472.221 127.735 472.221C128.428 472.221 129.072 472.337 129.669 472.569C130.266 472.797 130.786 473.125 131.228 473.554C131.67 473.978 132.016 474.506 132.267 475.14C132.522 475.769 132.65 476.466 132.65 477.231C132.65 477.997 132.522 478.697 132.267 479.33C132.016 479.964 131.67 480.492 131.228 480.916C130.786 481.34 130.266 481.668 129.669 481.9ZM125.691 479.515C126.215 480.057 126.896 480.328 127.735 480.328C128.578 480.328 129.259 480.057 129.779 479.515C130.303 478.968 130.565 478.207 130.565 477.231C130.565 476.256 130.303 475.497 129.779 474.955C129.259 474.413 128.578 474.142 127.735 474.142C126.896 474.142 126.215 474.413 125.691 474.955C125.167 475.497 124.905 476.256 124.905 477.231C124.905 478.207 125.167 478.968 125.691 479.515ZM136.461 474.436L136.502 475.83C136.725 475.356 137.051 474.987 137.479 474.723C137.908 474.454 138.436 474.319 139.065 474.319C139.612 474.319 140.12 474.415 140.59 474.606C141.064 474.798 141.472 475.067 141.813 475.413C142.155 475.755 142.422 476.174 142.613 476.671C142.809 477.163 142.907 477.701 142.907 478.284C142.907 479.46 142.545 480.415 141.82 481.148C141.096 481.878 140.177 482.242 139.065 482.242C138.441 482.242 137.91 482.11 137.473 481.846C137.04 481.581 136.711 481.21 136.488 480.731V484.936H134.574V474.436H136.461ZM137.356 479.85C137.739 480.251 138.24 480.451 138.86 480.451C139.48 480.451 139.979 480.26 140.357 479.877C140.74 479.494 140.932 478.963 140.932 478.284C140.932 477.61 140.74 477.079 140.357 476.691C139.979 476.304 139.48 476.11 138.86 476.11C138.254 476.11 137.76 476.311 137.377 476.712C136.994 477.108 136.8 477.626 136.796 478.264C136.791 478.915 136.978 479.444 137.356 479.85ZM147.614 473.28C147.404 473.49 147.151 473.595 146.855 473.595C146.563 473.595 146.312 473.49 146.103 473.28C145.893 473.071 145.788 472.815 145.788 472.515C145.788 472.228 145.893 471.979 146.103 471.77C146.312 471.555 146.563 471.448 146.855 471.448C147.151 471.448 147.404 471.555 147.614 471.77C147.823 471.979 147.928 472.228 147.928 472.515C147.928 472.815 147.823 473.071 147.614 473.28ZM149.671 473.595C149.37 473.595 149.115 473.49 148.906 473.28C148.696 473.071 148.591 472.815 148.591 472.515C148.591 472.228 148.696 471.979 148.906 471.77C149.12 471.555 149.375 471.448 149.671 471.448C149.958 471.448 150.207 471.555 150.416 471.77C150.63 471.979 150.738 472.228 150.738 472.515C150.738 472.815 150.63 473.071 150.416 473.28C150.207 473.49 149.958 473.595 149.671 473.595ZM152.214 478.284C152.214 478.539 152.2 478.749 152.173 478.913H146.301C146.41 479.437 146.641 479.847 146.991 480.144C147.347 480.435 147.768 480.581 148.256 480.581C149.081 480.581 149.667 480.228 150.013 479.521L151.811 479.966C151.565 480.668 151.116 481.224 150.464 481.634C149.812 482.039 149.076 482.242 148.256 482.242C147.527 482.242 146.862 482.08 146.26 481.757C145.663 481.433 145.187 480.968 144.831 480.362C144.48 479.752 144.305 479.059 144.305 478.284C144.305 477.509 144.48 476.819 144.831 476.213C145.187 475.607 145.663 475.14 146.26 474.812C146.862 474.483 147.527 474.319 148.256 474.319C148.99 474.319 149.655 474.483 150.252 474.812C150.854 475.14 151.33 475.607 151.681 476.213C152.036 476.819 152.214 477.509 152.214 478.284ZM148.256 475.987C147.787 475.987 147.377 476.129 147.026 476.411C146.675 476.689 146.44 477.072 146.322 477.56H150.211C150.097 477.054 149.867 476.666 149.521 476.397C149.179 476.124 148.757 475.987 148.256 475.987ZM161.439 474.436V482.133H159.621V476.254H156.688C156.688 476.682 156.674 477.097 156.647 477.498C156.62 477.899 156.574 478.314 156.51 478.742C156.447 479.166 156.362 479.556 156.257 479.911C156.157 480.262 156.025 480.592 155.861 480.902C155.697 481.212 155.508 481.467 155.294 481.668C155.084 481.864 154.829 482.007 154.528 482.099C154.232 482.185 153.904 482.197 153.544 482.133V480.314C154.059 480.396 154.412 480.139 154.603 479.542C154.772 479.027 154.861 478.065 154.87 476.657C154.87 476.402 154.867 475.994 154.863 475.434C154.863 474.996 154.863 474.663 154.863 474.436H161.439Z" fill="white"/>
<path d="M217.907 504.654V506.479H215.008V514.457H212.923V506.479H210.011V504.654H217.907ZM226.763 506.76L223.543 515.229C223.215 516.109 222.682 516.699 221.943 517C221.205 517.301 220.376 517.276 219.455 516.925L219.879 515.359C220.043 515.41 220.2 515.444 220.35 515.462C220.501 515.48 220.651 515.471 220.802 515.435C220.957 515.403 221.091 515.341 221.205 515.25C221.323 515.163 221.426 515.031 221.513 514.854C221.599 514.676 221.654 514.462 221.677 514.211L218.908 506.76H220.993L222.825 512.454L224.678 506.76H226.763ZM235.871 506.76V514.457H234.053V508.578H231.12C231.12 509.007 231.107 509.421 231.079 509.822C231.052 510.223 231.006 510.638 230.943 511.066C230.879 511.49 230.795 511.88 230.69 512.235C230.589 512.586 230.457 512.917 230.293 513.227C230.129 513.536 229.94 513.792 229.726 513.992C229.516 514.188 229.261 514.332 228.96 514.423C228.664 514.509 228.336 514.521 227.976 514.457V512.639C228.491 512.721 228.844 512.463 229.035 511.866C229.204 511.351 229.293 510.39 229.302 508.981C229.302 508.726 229.3 508.318 229.295 507.758C229.295 507.32 229.295 506.988 229.295 506.76H235.871ZM243.989 506.76H245.848V514.457H243.989L243.941 513.056C243.722 513.53 243.396 513.901 242.963 514.17C242.535 514.434 242.009 514.566 241.384 514.566C240.268 514.566 239.347 514.202 238.623 513.473C237.903 512.739 237.543 511.784 237.543 510.608C237.543 510.025 237.638 509.487 237.83 508.995C238.026 508.498 238.292 508.079 238.629 507.737C238.971 507.391 239.379 507.122 239.853 506.931C240.327 506.739 240.837 506.644 241.384 506.644C242.009 506.644 242.537 506.778 242.97 507.047C243.408 507.311 243.738 507.68 243.962 508.154L243.989 506.76ZM240.079 512.208C240.457 512.586 240.956 512.775 241.576 512.775C242.2 512.775 242.704 512.575 243.087 512.174C243.469 511.768 243.658 511.24 243.654 510.588C243.645 509.95 243.449 509.433 243.066 509.036C242.683 508.635 242.189 508.435 241.583 508.435C240.967 508.435 240.468 508.628 240.086 509.016C239.703 509.403 239.511 509.934 239.511 510.608C239.511 511.292 239.7 511.825 240.079 512.208Z" fill="white"/>
<path d="M133.376 602.371C133.9 602.421 134.319 602.665 134.633 603.103C134.952 603.535 135.112 604.069 135.112 604.702C135.112 605.14 135.018 605.529 134.832 605.871C134.649 606.213 134.401 606.484 134.086 606.685C133.772 606.885 133.421 607.038 133.034 607.143C132.646 607.243 132.232 607.293 131.79 607.293H127.011V597.49H131.605C132.047 597.49 132.457 597.543 132.835 597.647C133.218 597.748 133.562 597.9 133.868 598.105C134.173 598.306 134.412 598.577 134.585 598.919C134.759 599.256 134.845 599.644 134.845 600.081C134.845 600.683 134.72 601.184 134.469 601.585C134.219 601.981 133.854 602.243 133.376 602.371ZM129.103 598.926V601.592H131.489C131.858 601.592 132.166 601.471 132.412 601.229C132.662 600.983 132.788 600.662 132.788 600.266C132.788 599.869 132.662 599.548 132.412 599.302C132.166 599.051 131.858 598.926 131.489 598.926H129.103ZM131.667 605.755C132.036 605.755 132.346 605.632 132.596 605.386C132.847 605.14 132.972 604.818 132.972 604.422C132.972 604.021 132.847 603.7 132.596 603.458C132.346 603.212 132.036 603.089 131.667 603.089H129.103V605.755H131.667ZM142.587 606.938C141.994 607.247 141.329 607.402 140.591 607.402C139.852 607.402 139.187 607.247 138.595 606.938C138.002 606.623 137.528 606.163 137.173 605.557C136.817 604.951 136.64 604.246 136.64 603.444C136.64 602.647 136.817 601.943 137.173 601.332C137.528 600.721 138.002 600.261 138.595 599.951C139.192 599.637 139.857 599.479 140.591 599.479C141.329 599.479 141.994 599.637 142.587 599.951C143.184 600.261 143.66 600.721 144.016 601.332C144.371 601.943 144.549 602.647 144.549 603.444C144.549 604.246 144.371 604.951 144.016 605.557C143.66 606.163 143.184 606.623 142.587 606.938ZM140.591 605.604C141.201 605.604 141.696 605.406 142.074 605.01C142.457 604.613 142.651 604.091 142.655 603.444C142.66 602.806 142.466 602.287 142.074 601.886C141.687 601.48 141.192 601.277 140.591 601.277C139.989 601.277 139.492 601.48 139.1 601.886C138.713 602.287 138.519 602.806 138.519 603.444C138.519 604.091 138.713 604.613 139.1 605.01C139.488 605.406 139.985 605.604 140.591 605.604ZM148.093 599.596L148.134 600.99C148.357 600.516 148.683 600.147 149.112 599.883C149.54 599.614 150.069 599.479 150.697 599.479C151.244 599.479 151.753 599.575 152.222 599.767C152.696 599.958 153.104 600.227 153.446 600.573C153.787 600.915 154.054 601.334 154.245 601.831C154.441 602.323 154.539 602.861 154.539 603.444C154.539 604.62 154.177 605.575 153.452 606.309C152.728 607.038 151.809 607.402 150.697 607.402C150.073 607.402 149.542 607.27 149.105 607.006C148.672 606.742 148.344 606.37 148.12 605.892V610.096H146.206V599.596H148.093ZM148.989 605.01C149.371 605.411 149.873 605.611 150.492 605.611C151.112 605.611 151.611 605.42 151.989 605.037C152.372 604.654 152.564 604.123 152.564 603.444C152.564 602.77 152.372 602.239 151.989 601.852C151.611 601.464 151.112 601.271 150.492 601.271C149.886 601.271 149.392 601.471 149.009 601.872C148.626 602.269 148.433 602.786 148.428 603.424C148.423 604.076 148.61 604.604 148.989 605.01ZM161.884 606.938C161.292 607.247 160.627 607.402 159.888 607.402C159.15 607.402 158.485 607.247 157.892 606.938C157.3 606.623 156.826 606.163 156.47 605.557C156.115 604.951 155.937 604.246 155.937 603.444C155.937 602.647 156.115 601.943 156.47 601.332C156.826 600.721 157.3 600.261 157.892 599.951C158.489 599.637 159.155 599.479 159.888 599.479C160.627 599.479 161.292 599.637 161.884 599.951C162.481 600.261 162.958 600.721 163.313 601.332C163.669 601.943 163.846 602.647 163.846 603.444C163.846 604.246 163.669 604.951 163.313 605.557C162.958 606.163 162.481 606.623 161.884 606.938ZM159.888 605.604C160.499 605.604 160.993 605.406 161.372 605.01C161.754 604.613 161.948 604.091 161.953 603.444C161.957 602.806 161.764 602.287 161.372 601.886C160.984 601.48 160.49 601.277 159.888 601.277C159.287 601.277 158.79 601.48 158.398 601.886C158.011 602.287 157.817 602.806 157.817 603.444C157.817 604.091 158.011 604.613 158.398 605.01C158.785 605.406 159.282 605.604 159.888 605.604ZM170.576 599.596H172.429V607.293H170.576V604.162H167.37V607.293H165.504V599.596H167.37V602.72H170.576V599.596ZM182.009 603.444C182.009 603.7 181.995 603.909 181.968 604.073H176.096C176.205 604.597 176.436 605.007 176.786 605.304C177.142 605.595 177.563 605.741 178.051 605.741C178.876 605.741 179.462 605.388 179.808 604.682L181.606 605.126C181.36 605.828 180.911 606.384 180.259 606.794C179.607 607.2 178.871 607.402 178.051 607.402C177.322 607.402 176.657 607.241 176.055 606.917C175.458 606.593 174.982 606.129 174.626 605.522C174.275 604.912 174.1 604.219 174.1 603.444C174.1 602.67 174.275 601.979 174.626 601.373C174.982 600.767 175.458 600.3 176.055 599.972C176.657 599.644 177.322 599.479 178.051 599.479C178.785 599.479 179.45 599.644 180.047 599.972C180.649 600.3 181.125 600.767 181.476 601.373C181.831 601.979 182.009 602.67 182.009 603.444ZM178.051 601.147C177.582 601.147 177.172 601.289 176.821 601.571C176.47 601.849 176.235 602.232 176.117 602.72H180.006C179.892 602.214 179.662 601.826 179.316 601.558C178.974 601.284 178.552 601.147 178.051 601.147ZM194.201 599.596L190.585 603.438L194.201 607.286H192.294L189.498 604.518V607.293H187.645V604.518L184.849 607.286H182.942L186.558 603.438L182.942 599.596H184.849L187.645 602.357V599.596H189.498V602.357L192.294 599.596H194.201Z" fill="white"/>
<defs>
<filter id="filter0_d_1810_1786" x="0.000976562" y="220.117" width="759.683" height="531.135" filterUnits="userSpaceOnUse" color-interpolation-filters="sRGB">
<feFlood flood-opacity="0" result="BackgroundImageFix"/>
<feColorMatrix in="SourceAlpha" type="matrix" values="0 0 0 0 0 0 0 0 0 0 0 0 0 0 0 0 0 0 127 0" result="hardAlpha"/>
<feOffset dx="20" dy="24"/>
<feGaussianBlur stdDeviation="20"/>
<feComposite in2="hardAlpha" operator="out"/>
<feColorMatrix type="matrix" values="0 0 0 0 0.2125 0 0 0 0 0.5275 0 0 0 0 1 0 0 0 0.24 0"/>
<feBlend mode="normal" in2="BackgroundImageFix" result="effect1_dropShadow_1810_1786"/>
<feBlend mode="normal" in="SourceGraphic" in2="effect1_dropShadow_1810_1786" result="shape"/>
</filter>
<filter id="filter1_i_1810_1786" x="75.0168" y="-15.459" width="554.042" height="718.949" filterUnits="userSpaceOnUse" color-interpolation-filters="sRGB">
<feFlood flood-opacity="0" result="BackgroundImageFix"/>
<feBlend mode="normal" in="SourceGraphic" in2="BackgroundImageFix" result="shape"/>
<feColorMatrix in="SourceAlpha" type="matrix" values="0 0 0 0 0 0 0 0 0 0 0 0 0 0 0 0 0 0 127 0" result="hardAlpha"/>
<feOffset dy="-16"/>
<feGaussianBlur stdDeviation="40"/>
<feComposite in2="hardAlpha" operator="arithmetic" k2="-1" k3="1"/>
<feColorMatrix type="matrix" values="0 0 0 0 0.202667 0 0 0 0 0.133333 0 0 0 0 1 0 0 0 0.23 0"/>
<feBlend mode="normal" in2="shape" result="effect1_innerShadow_1810_1786"/>
</filter>
<linearGradient id="paint0_linear_1810_1786" x1="19.599" y1="236.117" x2="277.309" y2="861.228" gradientUnits="userSpaceOnUse">
<stop stop-color="#4EB6FF"/>
<stop offset="1" stop-color="#86DAFF"/>
</linearGradient>
<linearGradient id="paint1_linear_1810_1786" x1="629.063" y1="704.046" x2="-49.5938" y2="550.037" gradientUnits="userSpaceOnUse">
<stop stop-color="#48A0FF"/>
<stop offset="1" stop-color="#000FFD"/>
</linearGradient>
<linearGradient id="paint2_linear_1810_1786" x1="376.42" y1="309.473" x2="319.227" y2="398.163" gradientUnits="userSpaceOnUse">
<stop stop-color="white"/>
<stop offset="0.546612" stop-color="white" stop-opacity="0.672033"/>
<stop offset="1" stop-color="white" stop-opacity="0.4"/>
</linearGradient>
<linearGradient id="paint3_linear_1810_1786" x1="221.419" y1="388.217" x2="319.227" y2="398.163" gradientUnits="userSpaceOnUse">
<stop stop-color="white"/>
<stop offset="1" stop-color="white" stop-opacity="0.4"/>
</linearGradient>
<linearGradient id="paint4_linear_1810_1786" x1="142.675" y1="459.499" x2="319.227" y2="398.162" gradientUnits="userSpaceOnUse">
<stop stop-color="white"/>
<stop offset="1" stop-color="white" stop-opacity="0.4"/>
</linearGradient>
<linearGradient id="paint5_linear_1810_1786" x1="228.05" y1="491.826" x2="319.227" y2="398.162" gradientUnits="userSpaceOnUse">
<stop stop-color="white"/>
<stop offset="1" stop-color="white" stop-opacity="0.4"/>
</linearGradient>
<linearGradient id="paint6_linear_1810_1786" x1="160.91" y1="602.896" x2="319.227" y2="398.162" gradientUnits="userSpaceOnUse">
<stop stop-color="white"/>
<stop offset="1" stop-color="white" stop-opacity="0.4"/>
</linearGradient>
<linearGradient id="paint7_linear_1810_1786" x1="464.282" y1="369.151" x2="319.227" y2="398.162" gradientUnits="userSpaceOnUse">
<stop stop-color="white"/>
<stop offset="1" stop-color="white" stop-opacity="0.4"/>
</linearGradient>
<linearGradient id="paint8_linear_1810_1786" x1="464.282" y1="369.152" x2="489.148" y2="171.049" gradientUnits="userSpaceOnUse">
<stop stop-color="white"/>
<stop offset="1" stop-color="white" stop-opacity="0.4"/>
</linearGradient>
<linearGradient id="paint9_linear_1810_1786" x1="376.42" y1="309.472" x2="489.148" y2="171.049" gradientUnits="userSpaceOnUse">
<stop stop-color="white"/>
<stop offset="1" stop-color="white" stop-opacity="0.4"/>
</linearGradient>
<linearGradient id="paint10_linear_1810_1786" x1="221.419" y1="388.216" x2="489.148" y2="171.049" gradientUnits="userSpaceOnUse">
<stop stop-color="white"/>
<stop offset="1" stop-color="white" stop-opacity="0.4"/>
</linearGradient>
<linearGradient id="paint11_linear_1810_1786" x1="228.05" y1="491.827" x2="489.148" y2="171.049" gradientUnits="userSpaceOnUse">
<stop stop-color="white"/>
<stop offset="1" stop-color="white" stop-opacity="0.4"/>
</linearGradient>
<linearGradient id="paint12_linear_1810_1786" x1="160.91" y1="602.897" x2="489.148" y2="171.049" gradientUnits="userSpaceOnUse">
<stop stop-color="white"/>
<stop offset="1" stop-color="white" stop-opacity="0.4"/>
</linearGradient>
<linearGradient id="paint13_linear_1810_1786" x1="142.675" y1="459.5" x2="489.148" y2="171.049" gradientUnits="userSpaceOnUse">
<stop stop-color="white"/>
<stop offset="1" stop-color="white" stop-opacity="0.4"/>
</linearGradient>
</defs>
</svg>
