<svg width="12" height="13" viewBox="0 0 12 13" fill="none" xmlns="http://www.w3.org/2000/svg">
<path d="M11.7796 9.89997L9.04134 7.41032C8.91191 7.29268 8.74182 7.22994 8.56699 7.23534C8.39216 7.24075 8.22628 7.31388 8.10435 7.43929L6.49241 9.09704C6.10441 9.02294 5.32438 8.77977 4.52144 7.97885C3.7185 7.17524 3.47533 6.39318 3.40325 6.00787L5.05965 4.39526C5.18522 4.27342 5.25846 4.10751 5.26386 3.93263C5.26927 3.75775 5.20642 3.58763 5.08862 3.45827L2.59964 0.720736C2.48179 0.59097 2.31799 0.512257 2.14304 0.501315C1.96808 0.490372 1.79575 0.548062 1.66265 0.662132L0.200925 1.91571C0.0844657 2.03259 0.0149551 2.18815 0.00557878 2.35288C-0.00452532 2.52129 -0.197177 6.51039 2.89603 9.60493C5.59449 12.3027 8.97465 12.5001 9.90558 12.5001C10.0416 12.5001 10.1252 12.4961 10.1474 12.4947C10.3121 12.4855 10.4676 12.4157 10.5839 12.2987L11.8368 10.8363C11.9513 10.7036 12.0094 10.5314 11.9987 10.3565C11.988 10.1815 11.9094 10.0177 11.7796 9.89997Z" fill="white"/>
</svg>
