<svg width="16" height="17" viewBox="0 0 16 17" fill="none" xmlns="http://www.w3.org/2000/svg">
<path d="M13.7796 11.9L11.0413 9.41032C10.9119 9.29268 10.7418 9.22994 10.567 9.23534C10.3922 9.24075 10.2263 9.31388 10.1044 9.43929L8.49241 11.097C8.10441 11.0229 7.32438 10.7798 6.52144 9.97885C5.7185 9.17524 5.47533 8.39318 5.40325 8.00787L7.05965 6.39526C7.18522 6.27342 7.25846 6.10751 7.26386 5.93263C7.26927 5.75775 7.20642 5.58763 7.08862 5.45827L4.59964 2.72074C4.48179 2.59097 4.31799 2.51226 4.14304 2.50131C3.96808 2.49037 3.79575 2.54806 3.66265 2.66213L2.20092 3.91571C2.08447 4.03259 2.01496 4.18815 2.00558 4.35288C1.99547 4.52129 1.80282 8.51039 4.89603 11.6049C7.59449 14.3027 10.9747 14.5001 11.9056 14.5001C12.0416 14.5001 12.1252 14.4961 12.1474 14.4947C12.3121 14.4855 12.4676 14.4157 12.5839 14.2987L13.8368 12.8363C13.9513 12.7036 14.0094 12.5314 13.9987 12.3565C13.988 12.1815 13.9094 12.0177 13.7796 11.9Z" fill="#46B5FF"/>
</svg>
