<svg width="16" height="17" viewBox="0 0 16 17" fill="none" xmlns="http://www.w3.org/2000/svg">
<path fill-rule="evenodd" clip-rule="evenodd" d="M8.01314 13.5C8.00876 13.5 8.00438 13.5 8 13.5C7.88007 13.5 7.76124 13.4953 7.64367 13.4861C7.70179 11.9053 6.97237 11.5076 6.36666 11.1774C6.07376 11.0177 5.80978 10.8738 5.67778 10.6194C5.71562 10.2883 5.83622 9.97191 6.02846 9.69958C6.22069 9.42725 6.47838 9.20768 6.77778 9.06111C5.82944 8.89845 4.94501 8.47528 4.22333 7.83889C4.25389 8.12611 4.39383 8.39133 4.61444 8.57833C4.23795 8.43642 3.90177 8.20815 3.63199 7.9137C4.09507 6.04552 5.72531 4.63797 7.70421 4.50957C7.27649 5.40535 7.03812 6.83652 7.85944 7.625C7.39489 7.70042 7.01521 7.44079 6.68733 7.21658C6.35098 6.98659 6.06914 6.79387 5.80611 7.03833C5.11556 7.68611 6.00778 8.57222 7.89611 8.92056C9.90667 9.28111 10.1328 9.88611 10.1144 10.8028C10.1144 11.641 9.68875 12.6709 8.01314 13.5ZM11.7987 6.58651C12.2428 7.28395 12.5 8.11193 12.5 9C12.5 9.42035 12.4424 9.82723 12.3346 10.2132C12.1033 9.7821 11.8182 9.4929 11.562 9.23293C11.2824 8.94928 11.0371 8.70042 10.9333 8.34V8.35833C10.7547 7.73866 11.2186 7.11388 11.7987 6.58651ZM14 9C14 12.3137 11.3137 15 8 15C4.68629 15 2 12.3137 2 9C2 5.68629 4.68629 3 8 3C11.3137 3 14 5.68629 14 9Z" fill="#46B5FF"/>
</svg>
