<svg width="63" height="25" viewBox="0 0 63 25" fill="none" xmlns="http://www.w3.org/2000/svg">
<path d="M19.5698 18.9591C18.7262 18.9581 17.9175 18.6094 17.321 17.9895C16.7245 17.3696 16.389 16.529 16.388 15.6523H11.3754C11.3779 17.9102 12.242 20.0749 13.7782 21.6714C15.3144 23.2679 17.3973 24.166 19.5698 24.1685V18.9591Z" fill="#2788FF"/>
<path d="M62.9724 0.00390625H57.9598V5.00034H62.9724V0.00390625Z" fill="#46B5FF"/>
<path d="M16.3888 15.649C16.3887 13.3904 15.5254 11.2242 13.9886 9.62714C12.4519 8.03004 10.3676 7.1328 8.19433 7.13281C6.02105 7.13282 3.93678 8.03008 2.40005 9.6272C0.863311 11.2243 -1.17487e-05 13.3905 1.19915e-10 15.6491H5.01261C5.01261 15.2149 5.09491 14.7849 5.25481 14.3837C5.4147 13.9825 5.64907 13.618 5.94453 13.3109C6.23998 13.0038 6.59074 12.7603 6.97677 12.5941C7.3628 12.4279 7.77655 12.3424 8.19439 12.3424C8.61223 12.3424 9.02597 12.4279 9.412 12.5941C9.79803 12.7603 10.1488 13.0038 10.4442 13.3109C10.7397 13.618 10.9741 13.9825 11.134 14.3837C11.2939 14.7849 11.3762 15.2149 11.3762 15.6491H16.3888L16.3888 15.649Z" fill="url(#paint0_linear_318_10704)"/>
<path d="M31.2334 7.13281V7.80114C29.9877 7.25558 28.6314 7.03879 27.2855 7.17008C25.9397 7.30138 24.6459 7.77668 23.5196 8.55363C22.3934 9.33058 21.4695 10.385 20.8305 11.623C20.1914 12.8611 19.857 14.2441 19.857 15.649C19.857 17.054 20.1914 18.437 20.8305 19.675C21.4695 20.9131 22.3934 21.9675 23.5196 22.7445C24.6459 23.5214 25.9397 23.9967 27.2855 24.128C28.6314 24.2593 29.9877 24.0425 31.2334 23.497V24.1653H36.246V7.13281H31.2334ZM28.0516 18.9558C27.4223 18.9558 26.8071 18.7618 26.2839 18.3985C25.7607 18.0351 25.3528 17.5187 25.112 16.9144C24.8712 16.3102 24.8082 15.6453 24.931 15.0038C25.0538 14.3624 25.3568 13.7732 25.8018 13.3107C26.2468 12.8483 26.8137 12.5333 27.4309 12.4057C28.0482 12.2782 28.6879 12.3437 29.2693 12.594C29.8507 12.8443 30.3476 13.2681 30.6972 13.8119C31.0468 14.3557 31.2334 14.9951 31.2334 15.6491C31.2324 16.5258 30.8969 17.3663 30.3004 17.9862C29.7039 18.6061 28.8952 18.9548 28.0516 18.9558Z" fill="#46B5FF"/>
<path d="M45.1547 0.00390625H40.1421V24.1686H45.1547V0.00390625Z" fill="#46B5FF"/>
<path d="M54.0636 0H49.051V24.1672H54.0636V0Z" fill="#46B5FF"/>
<path d="M62.9724 7.13281H57.9598V24.1653H62.9724V7.13281Z" fill="#46B5FF"/>
<path d="M11.3762 0.00390625V15.6523C11.3754 16.5277 11.0406 17.367 10.4452 17.9863C9.84987 18.6055 9.04254 18.9541 8.20026 18.9556C7.35797 18.9572 6.54946 18.6115 5.95202 17.9945C5.35458 17.3774 5.01696 16.5393 5.0132 15.664C5.01436 15.6592 5.01529 15.6544 5.01599 15.6495C5.01599 15.609 5.00049 15.5701 4.9729 15.5414C4.94531 15.5128 4.9079 15.4967 4.86888 15.4967H0.14709C0.127773 15.4966 0.108645 15.5006 0.0907987 15.5083C0.0729522 15.516 0.0567367 15.5272 0.0430783 15.5414C0.0294198 15.5556 0.018586 15.5725 0.0111955 15.591C0.003805 15.6096 2.62869e-06 15.6294 5.53789e-06 15.6495C5.53789e-06 15.6505 0.000503903 15.6513 0.000548202 15.6523H5.53789e-06C-0.00124641 16.7715 0.209783 17.88 0.621028 18.9144C1.03227 19.9488 1.63567 20.8888 2.39671 21.6806C3.15775 22.4725 4.06151 23.1007 5.05632 23.5293C6.05113 23.9579 7.11747 24.1785 8.19437 24.1785C9.27127 24.1785 10.3376 23.9579 11.3324 23.5293C12.3272 23.1007 13.231 22.4725 13.992 21.6806C14.7531 20.8888 15.3565 19.9488 15.7677 18.9144C16.179 17.88 16.39 16.7715 16.3887 15.6523V0.00390625H11.3762Z" fill="#46B5FF"/>
<defs>
<linearGradient id="paint0_linear_318_10704" x1="4.8821" y1="11.3982" x2="14.6881" y2="11.484" gradientUnits="userSpaceOnUse">
<stop offset="0.06" stop-color="#46B5FF"/>
<stop offset="0.8" stop-color="#2788FF"/>
</linearGradient>
</defs>
</svg>
