<svg width="16" height="16" viewBox="0 0 16 16" fill="none" xmlns="http://www.w3.org/2000/svg">
<path d="M14.7412 12.5456C14.161 12.5449 13.6047 12.3141 13.1944 11.9038C12.7841 11.4935 12.5533 10.9372 12.5527 10.357H9.10474C9.10643 11.8514 9.70083 13.284 10.7575 14.3407C11.8142 15.3974 13.2469 15.9918 14.7412 15.9935V12.5456Z" fill="#0F68AA"/>
<path d="M12.5531 10.3569C12.553 8.86204 11.9592 7.42838 10.9021 6.37133C9.84508 5.31429 8.41141 4.72045 6.91651 4.72046C5.42161 4.72047 3.98795 5.31432 2.9309 6.37138C1.87386 7.42843 1.28002 8.8621 1.28003 10.357H4.72796C4.72796 10.0696 4.78457 9.78499 4.89455 9.51946C5.00454 9.25393 5.16575 9.01266 5.36898 8.80943C5.57221 8.6062 5.81348 8.44499 6.07901 8.33501C6.34454 8.22502 6.62914 8.16841 6.91655 8.16841C7.20396 8.16841 7.48855 8.22502 7.75409 8.33501C8.01962 8.44499 8.26089 8.6062 8.46412 8.80943C8.66735 9.01266 8.82856 9.25393 8.93854 9.51946C9.04853 9.78499 9.10514 10.0696 9.10514 10.357H12.5531L12.5531 10.3569Z" fill="url(#paint0_linear_24_6)"/>
<path d="M9.10513 0V10.3569C9.10458 10.9363 8.8743 11.4918 8.46479 11.9017C8.05527 12.3115 7.49995 12.5422 6.92058 12.5432C6.34121 12.5443 5.78508 12.3155 5.37413 11.9071C4.96318 11.4987 4.73095 10.944 4.72836 10.3646C4.72916 10.3615 4.7298 10.3583 4.73028 10.3551C4.73028 10.3283 4.71962 10.3025 4.70064 10.2835C4.68167 10.2646 4.65593 10.2539 4.6291 10.2539H1.38121C1.36792 10.2539 1.35476 10.2565 1.34249 10.2616C1.33021 10.2667 1.31906 10.2741 1.30966 10.2835C1.30027 10.2929 1.29281 10.3041 1.28773 10.3164C1.28265 10.3286 1.28003 10.3418 1.28003 10.3551C1.28003 10.3557 1.28038 10.3563 1.28041 10.3569H1.28003C1.27917 11.0977 1.42433 11.8313 1.7072 12.516C1.99008 13.2006 2.40512 13.8227 2.92861 14.3468C3.45209 14.8709 4.07374 15.2866 4.75802 15.5703C5.4423 15.854 6.17579 16 6.91653 16C7.65728 16 8.39076 15.854 9.07504 15.5703C9.75932 15.2866 10.381 14.8709 10.9045 14.3468C11.4279 13.8227 11.843 13.2006 12.1259 12.516C12.4087 11.8313 12.5539 11.0977 12.553 10.3569V0H9.10513Z" fill="#00AEEF"/>
<defs>
<linearGradient id="paint0_linear_24_6" x1="4.63819" y1="7.54353" x2="11.3832" y2="7.60484" gradientUnits="userSpaceOnUse">
<stop offset="0.06" stop-color="#00AEEF"/>
<stop offset="0.8" stop-color="#0F68AA"/>
</linearGradient>
</defs>
</svg>
