<svg width="1440" height="1482" viewBox="0 0 1440 1482" fill="none" xmlns="http://www.w3.org/2000/svg">
<path d="M0 343.5C123.5 468 503.181 464.965 735.5 295C966.5 126 1216 0 1440 0V431.31V852C1145 1007.5 994.5 1286 730 1409.5C457.418 1536.77 110 1474.5 0 1387.5V343.5Z" fill="url(#paint0_linear_272_17987)"/>
<path d="M0 343.5C123.5 468 503.181 464.965 735.5 295C966.5 126 1216 0 1440 0V431.31V852C1145 1007.5 994.5 1286 730 1409.5C457.418 1536.77 110 1474.5 0 1387.5V343.5Z" fill="url(#paint1_linear_272_17987)" fill-opacity="0.8"/>
<defs>
<linearGradient id="paint0_linear_272_17987" x1="0.00095168" y1="-352.107" x2="1390.59" y2="560.212" gradientUnits="userSpaceOnUse">
<stop stop-color="#001AFF"/>
<stop offset="1" stop-color="#55CCFF"/>
</linearGradient>
<linearGradient id="paint1_linear_272_17987" x1="720" y1="300.5" x2="104.466" y2="1534.12" gradientUnits="userSpaceOnUse">
<stop stop-color="#1DD6FF" stop-opacity="0"/>
<stop offset="1" stop-color="#7100E1"/>
</linearGradient>
</defs>
</svg>
