<?xml version="1.0" standalone="no"?>
<!DOCTYPE svg PUBLIC "-//W3C//DTD SVG 20010904//EN"
 "http://www.w3.org/TR/2001/REC-SVG-20010904/DTD/svg10.dtd">
<svg version="1.0" xmlns="http://www.w3.org/2000/svg"
 width="1200.000000pt" height="666.000000pt" viewBox="0 0 1200.000000 666.000000"
 preserveAspectRatio="xMidYMid meet">

<g transform="translate(0.000000,666.000000) scale(0.100000,-0.100000)"
fill="#0066FF" stroke="none">
<path d="M1300 6649 c-598 -63 -1103 -505 -1245 -1092 -13 -54 -30 -156 -36
-225 -15 -155 -6 -453 16 -577 81 -446 368 -830 772 -1033 101 -51 252 -104
368 -128 126 -26 432 -27 555 -1 450 96 813 373 1014 775 42 84 106 253 106
281 0 8 -70 11 -232 11 l-233 -1 -30 -67 c-170 -382 -589 -621 -1002 -573
-420 49 -753 336 -860 740 -35 131 -45 454 -18 613 67 406 365 721 770 814
120 28 322 25 439 -5 296 -77 534 -266 662 -528 l45 -93 230 0 231 0 -7 33
c-13 61 -77 222 -120 302 -127 234 -323 437 -550 568 -172 100 -377 166 -579
186 -123 12 -173 12 -296 0z"/>
<path d="M3777 5572 c-229 -598 -417 -1090 -417 -1094 0 -8 1900 -12 1900 -4
0 2 -38 102 -84 222 l-84 219 -541 3 c-298 1 -541 4 -541 6 0 2 149 389 330
861 182 472 330 862 330 866 0 5 -107 9 -237 9 l-238 -1 -418 -1087z"/>
<path d="M4923 6628 c7 -18 197 -511 422 -1095 l409 -1063 238 0 c131 0 238 3
238 8 -1 4 -189 495 -419 1092 l-418 1085 -242 3 -241 2 13 -32z"/>
<path d="M6970 5115 l0 -1545 225 0 225 0 0 1545 0 1545 -225 0 -225 0 0
-1545z"/>
<path d="M4570 2465 l0 -1545 225 0 225 0 0 1545 0 1545 -225 0 -225 0 0
-1545z"/>
<path d="M10 1565 l0 -1545 225 0 225 0 0 1190 c0 655 3 1190 8 1189 4 0 450
-536 991 -1190 l985 -1189 228 0 228 0 0 1545 0 1545 -225 0 -225 0 0 -1191
c0 -674 -4 -1189 -9 -1187 -5 2 -451 536 -991 1188 l-983 1185 -228 3 -229 2
0 -1545z"/>
<path d="M6358 1582 c-323 -840 -590 -1535 -594 -1544 -6 -17 43 -18 946 -18
758 0 951 3 947 13 -2 6 -40 105 -83 219 l-79 208 -542 0 c-299 0 -543 3 -543
6 0 7 770 2005 780 2023 5 9 20 -19 44 -80 20 -51 235 -610 478 -1241 l442
-1148 238 0 c131 0 238 3 237 8 0 4 -266 698 -592 1542 l-592 1535 -250 2
-250 3 -587 -1528z"/>
<path d="M10410 3104 c-395 -47 -699 -202 -954 -485 -127 -140 -223 -307 -285
-494 -62 -187 -74 -281 -74 -560 0 -339 30 -497 137 -721 202 -421 571 -708
1033 -801 135 -27 423 -24 563 6 562 121 1000 560 1115 1116 39 188 43 536 9
745 -95 586 -575 1072 -1159 1175 -90 15 -318 27 -385 19z m370 -473 c381
-100 667 -411 735 -800 20 -114 20 -420 0 -536 -69 -394 -345 -693 -740 -801
-89 -24 -320 -30 -420 -11 -313 60 -570 256 -710 542 -81 164 -96 238 -102
488 -7 289 17 426 104 602 67 133 203 289 327 374 104 72 287 143 421 164 77
13 301 -1 385 -22z"/>
<path d="M4462 247 c-45 -117 -82 -216 -82 -220 0 -4 187 -7 416 -7 329 0 415
3 412 13 -3 6 -40 105 -84 219 l-79 208 -251 0 -251 0 -81 -213z"/>
</g>
</svg>
