<?xml version="1.0" encoding="utf-8"?>
<!-- Generator: Adobe Illustrator 22.1.0, SVG Export Plug-In . SVG Version: 6.00 Build 0)  -->
<svg version="1.1" id="Layer_1" xmlns="http://www.w3.org/2000/svg" xmlns:xlink="http://www.w3.org/1999/xlink" x="0px" y="0px"
	 viewBox="0 0 511.5 81.2" style="enable-background:new 0 0 511.5 81.2;" xml:space="preserve">
<style type="text/css">
	.st0{fill:#09274C;}
</style>
<path class="st0" d="M55.4,55.4h-8.4V43.7H34.3v11.6h-8.4V25.8h8.4v10.6h12.7V25.8h8.4V55.4z M74.5,47.3c2.5,3.3,3.9,7.4,3.9,11.7
	c0,10.7-8.7,19.4-19.4,19.4c-4.3,0-8.4-1.4-11.7-3.9l-3.1,3.1l-3.7,3.7l-3.7-3.7l-3.1-3.1c-3.3,2.5-7.4,3.9-11.7,3.9
	c-10.7,0-19.4-8.7-19.4-19.4c0-4.3,1.4-8.4,3.9-11.7l-3.1-3.1L0,40.6l3.7-3.7l3.1-3.1c-2.5-3.3-3.9-7.4-3.9-11.7
	c0-10.7,8.7-19.4,19.4-19.4c4.3,0,8.4,1.4,11.7,3.9l3.1-3.1L40.6,0l3.7,3.7l3.1,3.1c3.3-2.5,7.4-3.9,11.7-3.9
	c10.7,0,19.4,8.7,19.4,19.4c0,4.3-1.4,8.4-3.9,11.7l3.1,3.1l3.7,3.7l-3.7,3.7L74.5,47.3z M73.2,59.1c0-4-1.7-7.6-4.3-10.2l-1.6-1.6
	l6.6-6.6L67.2,34l1.6-1.6c2.7-2.6,4.4-6.2,4.4-10.3C73.2,14.3,66.9,8,59.1,8c-4,0-7.6,1.6-10.1,4.3L47.2,14l-6.6-6.6L34,14l-1.6-1.6
	C29.8,9.7,26.2,8,22.1,8C14.3,8,8,14.3,8,22.1c0,4,1.7,7.6,4.3,10.2L14,34l-6.6,6.6l6.6,6.6l-1.7,1.7C9.6,51.5,8,55.1,8,59.1
	c0,7.8,6.3,14.2,14.2,14.2c4,0,7.7-1.7,10.3-4.4l1.6-1.6l6.6,6.6l6.6-6.6l1.6,1.6c2.6,2.7,6.2,4.3,10.2,4.3
	C66.9,73.2,73.2,66.9,73.2,59.1 M98.1,59.8h10.6V45.2h13.6v14.6H133V21.4h-10.6v14.4h-13.6V21.4H98.1V59.8z M146.9,59.8H178v-9
	h-20.6v-6.1h18.4v-8.4h-18.4v-5.8h20.3v-9h-30.8V59.8z M190.6,59.8h10.5v-21l16.4,21h9.3V21.4h-10.5v20.3l-15.8-20.3h-9.9V59.8z
	 M240.7,59.8h14.6c13.8,0,21.9-8.2,21.9-19.3c0-11.2-7.9-19.1-21.6-19.1h-14.8V59.8z M251.3,50.4V30.7h4.3c6.4,0,10.6,3.7,10.6,9.8
	c0,6.3-4.2,9.8-10.6,9.8H251.3z M289.7,59.8h31.1v-9h-20.6v-6.1h18.4v-8.4h-18.4v-5.8h20.3v-9h-30.8V59.8z M333.4,59.8H344V48.2h4.7
	l7.7,11.6h12.3l-9.1-13.4c4.8-2,7.9-5.9,7.9-11.8c0-3.9-1.2-6.8-3.4-9.1c-2.6-2.6-6.6-4.1-12.5-4.1h-18.1V59.8z M344,39.8v-9.2h7
	c3.6,0,5.8,1.5,5.8,4.5c0,2.9-2.1,4.7-5.7,4.7H344z M377,54.1c4.7,4.2,11.2,6.4,18,6.4c9.3,0,15.5-4.7,15.5-12.5
	c0-7.3-5.5-10.1-14.3-12c-5.3-1.2-6.6-2-6.6-3.7c0-1.5,1.3-2.6,3.8-2.6c3.4,0,7.2,1.3,10.7,3.8l5.3-7.5c-4.2-3.3-9.3-5.1-15.8-5.1
	c-9.2,0-14.8,5.1-14.8,12.3c0,8,6.3,10.3,14.5,12.2c5.2,1.2,6.5,2.1,6.5,3.7c0,1.8-1.5,2.7-4.4,2.7c-4.4,0-8.7-1.6-12.4-4.6
	L377,54.1 M421.4,40.6c0,11.1,8.8,19.9,20.6,19.9c11.8,0,20.7-8.9,20.7-19.9c0-11.1-8.8-19.9-20.6-19.9S421.4,29.6,421.4,40.6
	 M451.8,40.6c0,5.6-3.9,10.4-9.8,10.4c-5.8,0-9.8-4.8-9.8-10.4c0-5.6,3.9-10.4,9.7-10.4C447.8,30.3,451.8,35.1,451.8,40.6
	 M475.3,59.8h10.5v-21l16.4,21h9.3V21.4H501v20.3l-15.8-20.3h-9.9V59.8z"/>
</svg>
