<?xml version="1.0" encoding="UTF-8"?>
<svg width="430px" height="90px" viewBox="0 0 430 90" version="1.1" xmlns="http://www.w3.org/2000/svg" xmlns:xlink="http://www.w3.org/1999/xlink">
    <!-- Generator: Sketch 58 (84663) - https://sketch.com -->
    <title>Wordmark Color</title>
    <desc>Created with Sketch.</desc>
    <defs>
        <path d="M269.434503,25.5090195 C287.604986,25.5090195 301.411216,39.5210754 301.411216,57.7545367 C301.411216,76.0778576 287.604986,90 269.434503,90 C251.442239,90 237.458164,76.0778576 237.458164,57.7545367 C237.458164,39.5210754 251.442239,25.5090195 269.434503,25.5090195 Z M196.268849,26.4071246 C215.508172,26.4071246 228.779795,39.52107 228.779795,57.9341966 C228.779795,76.1677118 215.241003,89.8203294 196.090629,89.8203294 C191.080495,89.8203294 186.643323,89.3466974 182.635219,89.2874934 L181.839277,89.2814415 L175.426294,89.2814415 L175.337184,89.1915819 C175.337184,89.1915819 175.766473,84.9489913 175.782084,77.5688564 L175.78252,38.5328842 C175.78252,31.0371346 175.353231,26.6581018 175.33762,26.5013422 L175.337184,26.4969842 L175.426294,26.4071246 L196.268849,26.4071246 Z M18.2595937,26.4071354 C30.4621634,26.4071354 41.0617682,33.4131634 41.0617682,45.8084478 C41.0617682,58.562793 30.5512734,66.1077089 18.2595937,66.1077089 C17.0692187,66.1077089 13.6875516,65.9441531 11.9881902,65.7730222 L11.7572868,65.7485402 L11.6681767,65.8383459 L11.668613,77.5688671 C11.6839345,84.8123311 12.0977554,89.0333317 12.1130768,89.187181 L12.1135131,89.1915387 L12.024617,89.2813983 L0.0888961152,89.2813983 L-7.10542736e-15,89.1915387 C-7.10542736e-15,89.1915387 0.429289544,84.9490002 0.444900072,77.5688671 L0.445336375,77.1556387 L0.445336375,38.532895 C0.445336375,31.0371454 0.0160468314,26.6581126 0.000436302504,26.5013529 L-7.10542736e-15,26.496995 L0.0888961152,26.4071354 L18.2595937,26.4071354 Z M73.2836949,26.40713 L73.372591,26.4969896 C73.372591,26.4969896 73.7906793,28.2672346 75.0313442,31.235854 L75.15399,31.5268616 L97.3327149,82.5449437 C99.2433957,86.748427 100.815235,89.0735834 100.892633,89.187214 L100.89562,89.1915873 L100.89562,89.2814469 L88.6038866,89.2814469 L88.5147765,89.1915873 L88.5065086,89.1711305 C88.4213545,88.9600274 87.6827966,87.1194547 86.493583,83.8533753 L86.3770978,83.5328599 L82.2797999,73.9221982 L55.2021074,73.9221982 L51.3720862,83.5328599 C49.9012245,87.1975071 49.6069275,88.7432194 49.5913112,89.1579072 L49.5906337,89.1915873 L49.5015771,89.2814469 L37.2098439,89.2814469 L37.2098439,89.1915873 C37.2098439,89.1915873 38.9033371,86.971518 40.6391181,82.8645782 L40.7726953,82.5449437 L61.7934708,31.5268616 C63.0876778,28.4815227 63.4625824,26.6161109 63.4847501,26.5024967 L63.4858132,26.4969896 L63.5749233,26.40713 L73.2836949,26.40713 Z M118.064968,26.4071408 L151.733864,70.1496162 L151.822814,70.1496162 L151.822377,38.1196834 C151.807056,30.8764124 151.393235,26.655215 151.377914,26.5013583 L151.377477,26.4970004 L151.466587,26.4071408 L162.333255,26.4071408 L162.422365,26.4970004 C162.422365,26.4970004 161.993075,30.7397469 161.977465,38.1196834 L161.977465,77.5688725 C161.992786,84.8123364 162.406607,89.0333371 162.421929,89.1871864 L162.422365,89.1915441 L162.333255,89.2814037 L152.1792,89.2814037 L118.332085,44.9101269 L118.242975,44.9101269 L118.242975,77.1556441 C118.242975,84.6516055 118.67247,89.0304342 118.688088,89.1871864 L118.688525,89.1915441 L118.599415,89.2814037 L107.732694,89.2814037 L107.643637,89.1915441 C107.643637,89.1915441 108.072927,84.9490056 108.088537,77.5688725 L108.088974,32.6945617 C108.088974,31.403502 107.434459,29.5348502 106.20414,26.8516252 L106.040405,26.4970004 L106.129462,26.4071408 L118.064968,26.4071408 Z M332.144754,26.4071246 C344.347591,26.4071246 352.27507,35.568812 352.27507,45.9879944 C352.27507,53.5087648 346.397556,61.0295876 340.006676,62.6260768 L339.715846,62.6945437 L339.715846,62.7844033 C341.939109,63.3880009 344.162323,65.2333702 345.676221,67.6049929 L345.861713,67.9041349 L351.91863,77.9640946 C355.874487,84.5550135 359.33232,88.8851687 359.566087,89.1759631 L359.578672,89.1915819 L359.578672,89.2814415 L345.32748,89.2814415 L345.23821,89.1915819 C345.23821,89.1915819 343.518923,84.9434761 339.488683,78.3211241 L339.270563,77.9640946 L334.193536,69.7005717 C332.10134,66.3600376 329.838427,65.1704851 324.14835,65.1213781 L323.772366,65.1197819 L323.772366,77.155628 C323.772366,84.6515893 324.201604,89.0304701 324.217212,89.1872241 L324.217648,89.1915819 L324.128378,89.2814415 L312.193031,89.2814415 L312.103761,89.1915819 C312.103761,89.1915819 312.533411,84.9489913 312.549035,77.5688564 L312.549035,38.1196672 C312.533701,30.8763962 312.119532,26.6551988 312.104198,26.5013422 L312.103761,26.4969842 L312.193031,26.4071246 L332.144754,26.4071246 Z M401.797556,26.40713 L401.88688,26.4969896 C401.88688,26.4969896 402.332216,28.383286 403.668172,31.5268616 L403.668172,31.5268616 L425.846843,82.5449437 C427.806248,86.8562086 429.409748,89.1915873 429.409748,89.1915873 L429.409748,89.1915873 L429.409748,89.2814469 L417.117961,89.2814469 L417.028691,89.1915873 C417.028691,89.1915873 416.227342,87.215647 414.891012,83.5328599 L414.891012,83.5328599 L410.793928,73.9221982 L383.716396,73.9221982 L379.886428,83.5328599 C378.371878,87.3052909 378.104762,88.8323107 378.104762,89.1915873 L378.104762,89.1915873 L378.015866,89.2814469 L365.723758,89.2814469 L365.723758,89.1915873 C365.723758,89.1915873 367.505425,86.8562086 369.286663,82.5449437 L369.286663,82.5449437 L390.307599,31.5268616 C391.643501,28.383286 391.999941,26.4969896 391.999941,26.4969896 L391.999941,26.4969896 L392.088891,26.40713 L401.797556,26.40713 Z M269.434503,35.8383423 C257.855222,35.8383423 248.859278,45.3591984 248.859278,57.7545367 C248.859278,70.1496054 257.855222,79.6706772 269.434503,79.6706772 C281.103107,79.6706772 290.099052,70.1496054 290.099052,57.7545367 C290.099052,45.3591984 281.103107,35.8383423 269.434503,35.8383423 Z M195.28912,36.6468035 L187.005414,36.6468035 L187.005414,76.6167401 C187.005414,78.3233173 187.183634,78.6825399 188.163364,78.9520648 C189.766596,79.401147 192.527938,79.4910066 195.556236,79.4910066 C208.738749,79.4910066 217.378681,70.1496539 217.378681,58.0238944 C217.378681,45.808437 208.738749,36.6468035 195.28912,36.6468035 Z M68.2955637,41.4071561 L68.2066141,41.4071561 L59.3885153,63.5928754 L77.8262756,63.5928754 L68.2955637,41.4071561 Z M396.809852,41.4071561 L396.720528,41.4071561 L387.90243,63.5928754 L406.340404,63.5928754 L396.809852,41.4071561 Z M18.6157665,36.7364582 L11.6681767,36.7364582 L11.6681767,55.3293039 C13.0934564,55.5988827 16.2999211,55.7783861 17.7251472,55.7783861 C25.3851361,55.7783861 29.6606542,52.1857283 29.6606542,45.8084478 C29.6606542,39.251502 24.7616331,36.7364582 18.6157665,36.7364582 Z M330.630631,36.6468035 L323.772366,36.6468035 L323.772366,54.7904052 C325.464654,55.1496279 327.958346,55.1496279 329.383572,55.1496279 C337.221781,55.1496279 340.873956,50.8383629 340.873956,46.077854 C340.873956,41.0479281 337.311105,36.6468035 330.630631,36.6468035 Z M275.402583,18.3233101 C276.471368,18.3233101 277.450937,19.2216363 277.450937,20.3892717 C277.450937,21.6468206 276.471368,22.5449311 275.402583,22.5449311 C274.244473,22.5449311 273.264476,21.6468206 273.264476,20.3892717 C273.264476,19.2216363 274.244473,18.3233101 275.402583,18.3233101 Z M263.466851,18.3233209 C264.53569,18.3233209 265.515634,19.2216471 265.515634,20.3892825 C265.515634,21.6467775 264.53569,22.5449419 263.466851,22.5449419 C262.309115,22.5449419 261.329226,21.6467775 261.329226,20.3892825 C261.329226,19.2216471 262.309115,18.3233209 263.466851,18.3233209 Z M269.434503,17.6947136 C270.503342,17.6947136 271.483285,18.5928781 271.483285,19.7605134 C271.483285,21.0180624 270.503342,21.9161729 269.434503,21.9161729 C268.276767,21.9161729 267.296824,21.0180624 267.296824,19.7605134 C267.296824,18.5928781 268.276767,17.6947136 269.434503,17.6947136 Z M280.212071,2.5150223 L280.657407,2.60488189 L280.746731,2.69474149 L278.163716,16.5270782 L278.074446,16.6167221 L274.511541,15.8084712 L274.422645,15.7186116 L280.123175,2.60488189 L280.212071,2.5150223 Z M258.656929,2.5150223 L258.7462,2.60488189 L264.44673,15.7186116 L264.35746,15.8084712 L260.794608,16.6167221 L260.705658,16.5270782 L258.122697,2.69474149 L258.211593,2.60488189 L258.656929,2.5150223 Z M269.701935,-3.55271368e-15 L269.790831,0.0898595957 L271.305006,15.53886 L271.21611,15.6287736 L267.653259,15.6287736 L267.563935,15.53886 L269.167435,0.0898595957 L269.256331,-3.55271368e-15 L269.701935,-3.55271368e-15 Z" id="path-1"></path>
    </defs>
    <g id="02.-Assets" stroke="none" stroke-width="1" fill="none" fill-rule="evenodd">
        <g id="Assets-/-Wordmark">
            <mask id="mask-2" fill="white">
                <use xlink:href="#path-1"></use>
            </mask>
            <use id="Wordmark-Color" fill="#27251F" xlink:href="#path-1"></use>
        </g>
    </g>
</svg>