<?xml version="1.0" standalone="no"?>
<!DOCTYPE svg PUBLIC "-//W3C//DTD SVG 20010904//EN"
 "http://www.w3.org/TR/2001/REC-SVG-20010904/DTD/svg10.dtd">
<svg version="1.0" xmlns="http://www.w3.org/2000/svg"
 width="1024.000000pt" height="570.000000pt" viewBox="0 0 1024.000000 570.000000"
 preserveAspectRatio="xMidYMid meet">

<g transform="translate(0.000000,570.000000) scale(0.100000,-0.100000)"
fill="#000000" stroke="none">
<path d="M587 3503 c-4 -3 -7 -26 -7 -50 l0 -43 225 0 c208 0 229 -2 270 -21
25 -12 47 -25 50 -29 2 -4 -11 -39 -31 -77 -32 -65 -35 -78 -35 -160 0 -49 2
-95 6 -103 4 -13 -27 -15 -240 -12 -262 4 -247 6 -247 -43 0 -45 -10 -44 235
-47 199 -3 237 -5 265 -21 17 -10 32 -21 32 -26 0 -5 -19 -17 -42 -27 -36 -15
-78 -19 -265 -22 l-223 -4 0 -50 0 -50 243 4 243 3 -8 -45 c-15 -73 9 -197 48
-258 20 -30 13 -47 -28 -69 -29 -16 -64 -18 -265 -21 l-231 -4 -4 -50 c-2 -34
1 -52 9 -55 7 -3 108 -3 225 -1 228 5 267 12 350 64 l38 24 38 -24 c85 -54
121 -60 365 -64 l227 -4 0 55 0 55 -237 4 c-210 3 -242 6 -275 23 -44 22 -45
27 -19 81 32 65 43 128 40 211 l-4 78 248 -3 247 -4 0 50 0 50 -227 4 c-193 3
-235 7 -270 22 -24 10 -43 22 -43 27 0 5 15 16 33 26 28 16 65 18 270 21 l237
3 0 45 0 45 -247 -3 -248 -3 0 110 c0 105 -2 113 -33 173 -18 34 -30 66 -28
71 3 5 23 17 43 27 33 16 70 20 273 24 l235 5 0 45 0 45 -200 3 c-224 4 -280
-4 -368 -51 l-57 -30 -51 28 c-87 47 -136 55 -355 55 -110 0 -204 -3 -207 -7z
m640 -270 c23 -53 22 -165 -1 -225 -10 -27 -22 -48 -26 -48 -4 0 -15 18 -24
40 -32 81 -15 270 25 270 5 0 17 -17 26 -37z m0 -500 c23 -62 23 -155 0 -215
-10 -27 -23 -48 -28 -48 -20 0 -39 75 -39 155 0 80 19 155 39 155 5 0 18 -21
28 -47z"/>
<path d="M2522 3496 c-53 -28 -92 -91 -92 -147 0 -22 5 -29 19 -29 15 0 22 12
31 50 19 79 77 114 143 87 46 -20 67 -61 67 -132 0 -89 -38 -139 -115 -150
-39 -6 -45 -11 -45 -31 0 -21 4 -24 40 -24 59 0 98 -24 121 -73 39 -87 17
-190 -50 -234 -42 -28 -76 -29 -118 -3 -35 21 -51 45 -68 105 -9 28 -18 40
-31 40 -16 0 -19 -7 -17 -38 8 -132 169 -214 276 -142 57 39 81 95 81 185 -1
90 -23 144 -71 172 -39 24 -41 31 -9 51 51 34 74 156 42 230 -32 75 -137 119
-204 83z"/>
<path d="M3029 3482 c-49 -31 -95 -107 -120 -197 -21 -74 -18 -286 5 -350 43
-122 112 -185 202 -185 121 0 207 132 220 338 7 115 -6 203 -41 280 -32 70
-58 99 -110 123 -58 27 -103 24 -156 -9z m123 -26 c69 -29 114 -129 124 -276
15 -223 -53 -390 -159 -390 -36 0 -66 16 -92 49 -55 69 -70 137 -69 301 1 114
4 144 23 192 27 70 55 106 95 124 39 17 37 17 78 0z"/>
<path d="M4104 3495 c-91 -40 -164 -210 -164 -380 0 -76 33 -206 66 -262 69
-118 199 -139 286 -46 35 37 72 114 87 183 21 89 10 282 -18 354 -53 133 -157
195 -257 151z m100 -39 c50 -21 91 -82 115 -172 14 -54 14 -277 0 -323 -35
-110 -90 -171 -155 -171 -39 0 -97 52 -120 106 -83 200 -37 505 86 561 33 15
35 15 74 -1z"/>
<path d="M5062 3489 c-51 -26 -92 -82 -124 -170 -19 -55 -23 -83 -22 -204 0
-121 3 -147 22 -196 28 -70 61 -115 108 -146 31 -22 45 -25 95 -21 94 7 147
61 191 193 30 91 33 278 6 366 -26 82 -74 150 -128 177 -55 28 -93 28 -148 1z
m115 -34 c43 -12 95 -103 112 -199 23 -124 3 -308 -40 -386 -41 -72 -110 -98
-168 -64 -75 44 -115 177 -108 354 5 125 22 193 64 249 27 35 77 63 103 56 8
-2 25 -6 37 -10z"/>
<path d="M8004 3496 c-165 -72 -218 -464 -89 -658 36 -54 94 -88 150 -88 56 0
92 18 135 66 43 49 65 101 85 197 19 94 8 242 -26 332 -48 129 -157 193 -255
151z m124 -52 c35 -23 70 -83 88 -154 24 -94 16 -303 -15 -382 -51 -132 -168
-156 -235 -49 -76 119 -84 356 -19 503 28 63 44 80 88 96 33 11 58 7 93 -14z"/>
<path d="M9034 3484 c-46 -31 -57 -44 -88 -104 -58 -111 -72 -309 -32 -443 34
-113 113 -187 200 -187 91 0 147 53 197 187 26 70 29 90 29 198 0 100 -4 131
-23 182 -61 166 -180 237 -283 167z m143 -40 c83 -53 127 -285 89 -465 -28
-132 -82 -195 -159 -185 -102 12 -164 161 -154 366 8 163 46 257 117 292 37
19 70 16 107 -8z"/>
<path d="M3608 3488 c-9 -7 -26 -49 -38 -93 -30 -112 -171 -607 -177 -622 -4
-9 5 -13 25 -13 27 0 31 4 42 48 7 26 27 101 46 167 18 66 47 172 64 235 17
63 38 140 47 170 l15 55 13 -35 c15 -44 30 -93 75 -260 11 -41 25 -91 30 -110
5 -19 18 -66 29 -105 48 -176 43 -165 73 -165 15 0 28 2 28 5 0 3 -16 57 -35
121 -19 64 -44 148 -54 187 -11 40 -40 143 -65 229 -25 86 -46 164 -46 171 0
26 -46 35 -72 15z"/>
<path d="M4467 3494 c-4 -4 -7 -18 -7 -31 0 -22 3 -23 85 -23 l85 0 0 -340 0
-340 30 0 30 0 0 340 0 340 73 0 c68 0 75 2 85 24 6 13 8 26 5 29 -8 8 -378 9
-386 1z"/>
<path d="M5503 3494 c-10 -4 -13 -88 -13 -370 l0 -364 165 0 165 0 0 30 0 30
-140 0 -141 0 3 148 3 147 118 3 117 3 0 29 0 29 -117 3 -118 3 0 125 0 125
131 3 c128 2 131 3 142 27 6 13 8 26 4 28 -10 7 -305 7 -319 1z"/>
<path d="M6440 3491 c-104 -15 -160 -85 -160 -198 0 -82 25 -134 80 -165 22
-13 40 -27 40 -31 0 -4 -36 -78 -80 -164 -44 -86 -80 -160 -80 -164 0 -5 12
-9 28 -9 25 0 33 12 112 168 l85 167 60 0 60 0 3 -168 2 -168 28 3 27 3 0 365
0 365 -80 1 c-44 1 -100 -1 -125 -5z m148 -193 l-3 -151 -79 2 c-43 1 -89 7
-102 13 -57 26 -82 135 -50 213 23 54 67 75 159 75 l78 0 -3 -152z"/>
<path d="M6816 3493 c-3 -3 -6 -170 -6 -370 l0 -363 105 0 c189 0 251 29 275
131 18 73 8 171 -21 213 -39 57 -72 70 -189 76 l-105 5 -3 128 -3 127 140 0
c136 0 139 0 155 24 9 14 12 27 8 29 -11 8 -348 7 -356 0z m208 -364 c83 -21
116 -69 116 -167 0 -111 -51 -152 -190 -152 l-80 0 0 165 0 165 56 0 c30 0 74
-5 98 -11z"/>
<path d="M7496 3491 c-2 -3 -43 -143 -90 -311 -48 -168 -91 -316 -96 -330 -5
-14 -12 -40 -15 -58 -7 -32 -6 -33 21 -30 19 2 30 10 35 28 22 79 86 314 130
473 23 86 45 157 49 157 4 0 19 -46 34 -102 15 -57 32 -114 37 -128 5 -14 20
-68 34 -120 13 -52 34 -129 46 -170 11 -41 24 -88 28 -105 5 -23 13 -31 34
-33 17 -2 27 1 27 10 0 7 -47 173 -103 368 l-102 355 -33 1 c-18 1 -34 -2 -36
-5z"/>
<path d="M8437 3493 c-4 -3 -7 -170 -7 -370 l0 -363 25 0 25 0 0 133 0 132 44
50 c29 32 48 46 54 40 8 -9 36 -60 162 -300 22 -42 31 -50 58 -53 18 -2 32 -1
32 2 0 3 -10 22 -21 43 -12 21 -48 90 -81 153 -33 63 -74 141 -90 172 l-30 57
33 44 c64 86 174 249 172 255 -1 3 -13 7 -26 9 -23 3 -44 -20 -128 -142 -19
-27 -38 -55 -44 -61 -5 -6 -35 -48 -65 -92 -30 -45 -58 -82 -62 -82 -5 0 -8
86 -8 190 0 178 -1 190 -18 190 -10 0 -22 -3 -25 -7z"/>
<path d="M3440 2553 c0 -44 -3 -54 -12 -45 -18 18 -83 15 -100 -5 -26 -32 -38
-73 -37 -126 1 -68 20 -119 50 -135 27 -14 79 -8 91 11 4 6 8 -16 8 -50 0 -56
2 -63 20 -63 18 0 20 7 20 60 l0 59 29 -17 c40 -23 80 -8 104 38 27 52 19 180
-13 215 -28 29 -74 33 -102 8 -17 -15 -18 -14 -18 45 0 55 -2 62 -20 62 -18 0
-20 -7 -20 -57z m-16 -79 c23 -22 22 -161 0 -192 -55 -78 -122 69 -79 172 17
40 51 49 79 20z m154 -14 c18 -34 11 -166 -11 -187 -28 -28 -65 -9 -78 40 -12
47 -5 143 13 164 17 21 61 11 76 -17z"/>
<path d="M5790 2602 c0 -4 7 -18 16 -30 27 -40 114 -20 114 26 0 18 -14 14
-28 -8 -7 -11 -20 -20 -31 -20 -10 0 -26 9 -36 20 -18 20 -35 26 -35 12z"/>
<path d="M2430 2380 c0 -133 1 -140 20 -140 19 0 20 7 20 120 l0 120 50 0 50
0 0 -120 c0 -113 1 -120 20 -120 19 0 20 7 20 140 l0 140 -90 0 -90 0 0 -140z"/>
<path d="M2747 2508 c-9 -7 -19 -25 -23 -40 -5 -24 -3 -28 14 -28 14 0 22 8
24 23 2 18 9 22 38 22 31 0 35 -3 38 -28 4 -36 -8 -51 -59 -67 -48 -16 -69
-42 -69 -87 0 -64 62 -93 113 -53 21 17 26 18 31 5 3 -8 15 -15 26 -15 21 0
27 14 10 25 -6 3 -10 52 -10 111 0 91 -3 107 -20 124 -23 23 -87 27 -113 8z
m77 -229 c-34 -37 -78 -14 -72 38 2 20 14 33 43 50 l40 22 3 -45 c2 -33 -2
-52 -14 -65z"/>
<path d="M3004 2507 c-2 -7 -3 -91 -2 -187 3 -157 5 -175 21 -178 15 -3 17 5
17 57 l0 60 29 -17 c66 -38 121 23 121 135 0 99 -25 142 -84 143 -16 0 -38 -7
-48 -17 -17 -15 -18 -15 -18 0 0 20 -28 23 -36 4z m133 -47 c7 -14 13 -52 13
-85 0 -74 -16 -109 -52 -113 -40 -5 -62 43 -56 123 7 80 21 107 56 103 16 -2
31 -13 39 -28z"/>
<path d="M3748 2513 c-2 -5 -2 -68 0 -140 3 -108 6 -133 18 -133 11 0 14 14
14 59 0 46 4 60 17 65 22 9 43 -18 43 -55 0 -53 71 -91 137 -73 66 18 81 200
22 263 -30 32 -98 29 -133 -5 -14 -15 -26 -35 -26 -45 0 -33 -12 -49 -36 -49
-23 0 -24 3 -24 60 0 46 -3 60 -14 60 -8 0 -16 -3 -18 -7z m218 -31 c19 -12
36 -93 29 -137 -13 -83 -66 -113 -102 -58 -25 38 -24 154 2 183 18 20 50 26
71 12z"/>
<path d="M4150 2380 c0 -118 2 -140 15 -140 12 0 15 21 16 123 1 116 1 120 14
82 8 -22 24 -77 36 -123 29 -111 43 -107 80 22 16 54 31 101 34 104 3 3 5 -43
5 -101 0 -100 1 -107 20 -107 19 0 20 7 20 140 l0 140 -29 0 c-31 0 -29 5 -61
-115 -34 -127 -31 -125 -56 -28 -34 131 -39 143 -69 143 l-25 0 0 -140z"/>
<path d="M4532 2500 c-26 -25 -36 -72 -30 -157 4 -57 8 -69 32 -89 36 -31 80
-31 111 1 30 29 35 78 8 73 -10 -2 -19 -12 -21 -23 -15 -78 -92 -49 -92 34 0
42 1 42 33 41 17 -1 47 -2 66 -1 l34 1 -6 56 c-4 37 -12 60 -24 70 -27 20 -86
17 -111 -6z m86 -23 c6 -7 13 -25 16 -40 4 -25 2 -27 -29 -27 -18 0 -40 -3
-49 -6 -12 -5 -16 0 -16 21 0 14 5 35 10 46 12 22 52 25 68 6z"/>
<path d="M4790 2340 c0 -99 0 -183 -1 -187 0 -5 7 -9 15 -11 13 -3 16 7 16 52
0 60 1 62 32 45 11 -6 35 -8 53 -5 44 9 65 53 65 139 0 72 -12 114 -38 133
-22 17 -74 18 -90 2 -9 -9 -15 -9 -24 0 -7 7 -16 12 -20 12 -4 0 -8 -81 -8
-180z m126 125 c22 -34 17 -167 -8 -191 -22 -22 -61 -12 -76 20 -14 31 -10
143 7 174 16 30 56 29 77 -3z"/>
<path d="M5090 2381 c0 -77 4 -142 8 -145 22 -13 34 14 31 68 -3 44 -1 56 11
57 8 1 31 2 50 2 l35 2 3 -62 c3 -55 5 -63 23 -63 18 0 19 6 17 137 -3 122 -5
138 -20 141 -16 3 -18 -5 -18 -57 l0 -61 -50 0 -49 0 -3 57 c-2 46 -7 59 -20
61 -16 3 -18 -9 -18 -137z"/>
<path d="M5384 2507 c-2 -7 -3 -71 -2 -142 l3 -129 65 3 c55 1 68 6 88 27 25
28 28 54 10 87 -18 35 -40 46 -85 47 l-43 0 0 60 c0 47 -3 60 -15 60 -9 0 -18
-6 -21 -13z m121 -157 c18 -15 20 -51 3 -68 -7 -7 -29 -12 -50 -12 l-38 0 0
49 0 49 35 -2 c19 -2 41 -9 50 -16z"/>
<path d="M5610 2381 c0 -132 1 -141 19 -141 18 0 19 8 18 137 -2 122 -4 138
-19 141 -16 3 -18 -9 -18 -137z"/>
<path d="M5767 2513 c-4 -3 -7 -66 -7 -140 l0 -133 28 0 c25 0 30 7 66 93 21
50 42 96 47 102 5 5 9 -34 9 -92 0 -82 3 -102 15 -107 23 -9 26 8 23 150 -3
120 -4 129 -22 129 -20 0 -54 -47 -55 -77 -1 -10 -5 -18 -11 -18 -5 0 -10 -7
-10 -15 0 -20 -32 -85 -42 -85 -4 0 -8 45 -8 100 0 77 -3 100 -13 100 -8 0
-17 -3 -20 -7z"/>
<path d="M6268 2506 c-27 -20 -38 -61 -38 -138 0 -101 25 -137 97 -138 32 0
72 40 75 75 4 42 -23 40 -36 -3 -11 -40 -47 -53 -76 -27 -17 15 -20 31 -20 94
0 87 16 121 56 121 19 0 29 -8 37 -30 14 -36 37 -40 37 -5 0 53 -86 86 -132
51z"/>
<path d="M6480 2512 c0 -5 18 -64 40 -131 22 -66 40 -134 40 -150 0 -35 -25
-64 -50 -56 -10 3 -20 0 -23 -9 -7 -19 1 -26 30 -26 39 0 68 40 98 136 15 49
37 121 50 159 12 39 20 73 18 78 -8 14 -32 7 -37 -10 -9 -36 -48 -168 -53
-183 -6 -19 -22 15 -54 120 -17 52 -29 76 -41 78 -10 2 -18 -1 -18 -6z"/>
<path d="M6787 2513 c-9 -8 -9 -267 -1 -276 3 -3 12 -3 20 0 11 4 14 31 14
124 l0 119 55 0 55 0 0 -118 c0 -119 4 -139 24 -123 7 6 10 56 8 145 l-3 136
-83 0 c-45 0 -86 -3 -89 -7z"/>
<path d="M7107 2502 c-55 -60 -48 -230 11 -261 52 -28 122 7 122 60 0 39 -23
37 -41 -3 -28 -65 -94 -32 -87 44 l3 33 63 0 62 0 0 46 c0 64 -28 99 -79 99
-23 0 -44 -7 -54 -18z m81 -24 c7 -7 12 -25 12 -40 0 -27 -2 -28 -45 -28 -41
0 -45 2 -45 24 0 45 50 72 78 44z"/>
<path d="M7360 2330 c0 -183 1 -190 20 -190 18 0 20 7 20 54 l0 53 39 -10 c74
-20 101 19 101 144 0 65 -12 106 -38 125 -22 17 -74 18 -91 2 -11 -10 -14 -10
-18 0 -3 6 -11 12 -19 12 -12 0 -14 -33 -14 -190z m124 138 c11 -15 16 -45 16
-93 0 -101 -34 -142 -82 -98 -14 13 -18 31 -18 95 0 45 5 87 12 98 17 27 53
25 72 -2z"/>
<path d="M7657 2514 c-8 -9 -10 -268 -1 -277 3 -3 12 -3 20 0 11 4 14 31 14
121 0 64 4 112 8 107 9 -10 44 -130 57 -193 5 -23 12 -32 23 -30 11 2 26 37
48 113 l33 110 0 -112 c1 -106 2 -113 21 -113 19 0 20 7 20 140 l0 140 -30 0
c-32 0 -30 5 -66 -142 -10 -43 -21 -78 -24 -78 -3 0 -12 26 -19 58 -28 121
-44 157 -71 160 -14 2 -29 0 -33 -4z"/>
<path d="M8038 2506 c-22 -16 -24 -66 -4 -66 8 0 17 12 20 26 6 21 11 25 39
22 29 -3 32 -6 32 -38 0 -31 -5 -37 -40 -53 -54 -25 -85 -56 -85 -83 0 -37 21
-72 46 -78 28 -7 74 2 74 15 0 5 7 9 15 9 8 0 15 -4 15 -9 0 -12 39 -21 46
-10 3 5 -2 16 -10 25 -12 12 -16 38 -16 112 0 121 -11 142 -73 142 -23 0 -50
-7 -59 -14z m92 -168 c0 -62 -44 -100 -78 -66 -25 25 -9 72 33 96 36 20 45 14
45 -30z"/>
<path d="M8300 2330 c0 -183 1 -190 20 -190 18 0 20 7 20 63 0 36 4 57 8 49
15 -23 75 -26 100 -5 53 44 47 233 -9 263 -24 13 -72 13 -86 -1 -8 -8 -13 -8
-17 0 -4 6 -14 11 -22 11 -12 0 -14 -31 -14 -190z m126 139 c42 -46 16 -209
-33 -209 -39 0 -53 29 -53 112 0 45 5 87 12 98 17 26 50 25 74 -1z"/>
<path d="M8597 2513 c-4 -3 -7 -66 -7 -140 0 -126 1 -133 20 -133 17 0 20 7
20 48 1 46 21 89 37 79 5 -3 21 -32 37 -65 26 -53 55 -80 70 -65 3 3 -15 44
-39 90 -39 75 -42 87 -29 100 22 22 64 79 64 86 0 21 -34 1 -67 -40 -77 -97
-73 -96 -73 -20 0 49 -4 67 -13 67 -8 0 -17 -3 -20 -7z"/>
<path d="M8879 2488 c-17 -28 -20 -47 -17 -126 3 -86 5 -95 28 -113 18 -15 35
-19 64 -15 46 5 62 19 71 64 9 45 -20 44 -39 -3 -11 -24 -21 -35 -36 -35 -34
0 -50 24 -50 74 l0 46 69 0 68 0 -8 47 c-14 74 -31 93 -84 93 -40 0 -48 -4
-66 -32z m101 -19 c6 -11 10 -30 8 -42 -2 -18 -9 -22 -43 -22 -36 0 -40 3 -43
28 -2 16 2 35 9 43 17 21 57 17 69 -7z"/>
<path d="M9110 2500 c0 -16 7 -20 35 -20 l35 0 0 -120 c0 -113 1 -120 20 -120
19 0 20 7 20 120 l0 120 35 0 c28 0 35 4 35 20 0 19 -7 20 -90 20 -83 0 -90
-1 -90 -20z"/>
</g>
</svg>
