<svg width="80" height="80" viewBox="0 0 80 80" fill="none" xmlns="http://www.w3.org/2000/svg">
<rect x="1" y="1" width="78" height="78" rx="23" fill="url(#paint0_linear_272_18593)" stroke="url(#paint1_linear_272_18593)" stroke-width="2"/>
<g filter="url(#filter0_d_272_18593)">
<path d="M34.6006 51.8994C34.2876 52.2124 33.8797 52.4127 33.4407 52.469L27.4598 53.2357C27.1351 53.2774 26.8587 53.0009 26.9003 52.6762L27.6671 46.6953C27.7234 46.2563 27.9237 45.8484 28.2366 45.5354L45.5563 28.2157C46.3374 27.4347 47.6037 27.4347 48.3848 28.2157L51.9203 31.7513C52.7014 32.5323 52.7014 33.7986 51.9203 34.5797L34.6006 51.8994Z" fill="white" fill-opacity="0.5" shape-rendering="crispEdges"/>
<path d="M33.5679 53.4608C34.2264 53.3764 34.8383 53.076 35.3077 52.6065L52.6274 35.2868C53.799 34.1152 53.799 32.2157 52.6274 31.0442L49.0919 27.5086C47.9203 26.337 46.0208 26.337 44.8492 27.5086L27.5295 44.8283C27.0601 45.2978 26.7596 45.9097 26.6752 46.5682L25.9084 52.549C25.7835 53.5232 26.6129 54.3525 27.587 54.2276L33.5679 53.4608Z" stroke="white" stroke-width="2" shape-rendering="crispEdges"/>
</g>
<defs>
<filter id="filter0_d_272_18593" x="18.8957" y="19.6289" width="57.6104" height="57.6133" filterUnits="userSpaceOnUse" color-interpolation-filters="sRGB">
<feFlood flood-opacity="0" result="BackgroundImageFix"/>
<feColorMatrix in="SourceAlpha" type="matrix" values="0 0 0 0 0 0 0 0 0 0 0 0 0 0 0 0 0 0 127 0" result="hardAlpha"/>
<feOffset dx="8" dy="8"/>
<feGaussianBlur stdDeviation="7"/>
<feComposite in2="hardAlpha" operator="out"/>
<feColorMatrix type="matrix" values="0 0 0 0 0.0352941 0 0 0 0 0.447059 0 0 0 0 1 0 0 0 1 0"/>
<feBlend mode="normal" in2="BackgroundImageFix" result="effect1_dropShadow_272_18593"/>
<feBlend mode="normal" in="SourceGraphic" in2="effect1_dropShadow_272_18593" result="shape"/>
</filter>
<linearGradient id="paint0_linear_272_18593" x1="0" y1="0" x2="23.6662" y2="94.1591" gradientUnits="userSpaceOnUse">
<stop stop-color="#001AFF"/>
<stop offset="1" stop-color="#46D3FF"/>
</linearGradient>
<linearGradient id="paint1_linear_272_18593" x1="0" y1="0" x2="23.6662" y2="94.1591" gradientUnits="userSpaceOnUse">
<stop stop-color="#46B5FF"/>
<stop offset="1" stop-color="#0068FF"/>
</linearGradient>
</defs>
</svg>
