<svg width="80" height="80" viewBox="0 0 80 80" fill="none" xmlns="http://www.w3.org/2000/svg">
<rect x="1" y="1" width="78" height="78" rx="23" fill="url(#paint0_linear_272_18600)" stroke="url(#paint1_linear_272_18600)" stroke-width="2"/>
<g filter="url(#filter0_d_272_18600)">
<path fill-rule="evenodd" clip-rule="evenodd" d="M55 29C55 28.4477 54.5523 28 54 28H26C25.4477 28 25 28.4477 25 29V31.5405C25 32.0928 25.4477 32.5405 26 32.5405H26.3043V51C26.3043 51.5523 26.7521 52 27.3043 52H52.6957C53.2479 52 53.6957 51.5523 53.6957 51V32.5405H54C54.5523 32.5405 55 32.0928 55 31.5405V29Z" fill="white" fill-opacity="0.5" shape-rendering="crispEdges"/>
<path d="M26.3043 32.5405H26C25.4477 32.5405 25 32.0928 25 31.5405V29C25 28.4477 25.4477 28 26 28H54C54.5523 28 55 28.4477 55 29V31.5405C55 32.0928 54.5523 32.5405 54 32.5405H53.6957M26.3043 32.5405V51C26.3043 51.5523 26.7521 52 27.3043 52H52.6957C53.2479 52 53.6957 51.5523 53.6957 51V32.5405M26.3043 32.5405H41.913M53.6957 32.5405H47.8261M41.913 32.5405V40.5044C41.913 40.6879 42.1395 40.7745 42.262 40.6379L44.7207 37.8958C44.8001 37.8072 44.939 37.8072 45.0185 37.8958L47.4772 40.6379C47.5997 40.7745 47.8261 40.6879 47.8261 40.5044V32.5405M41.913 32.5405H47.8261" stroke="white" stroke-width="2" shape-rendering="crispEdges"/>
</g>
<defs>
<filter id="filter0_d_272_18600" x="18" y="21" width="60" height="54" filterUnits="userSpaceOnUse" color-interpolation-filters="sRGB">
<feFlood flood-opacity="0" result="BackgroundImageFix"/>
<feColorMatrix in="SourceAlpha" type="matrix" values="0 0 0 0 0 0 0 0 0 0 0 0 0 0 0 0 0 0 127 0" result="hardAlpha"/>
<feOffset dx="8" dy="8"/>
<feGaussianBlur stdDeviation="7"/>
<feComposite in2="hardAlpha" operator="out"/>
<feColorMatrix type="matrix" values="0 0 0 0 0.0352941 0 0 0 0 0.447059 0 0 0 0 1 0 0 0 1 0"/>
<feBlend mode="normal" in2="BackgroundImageFix" result="effect1_dropShadow_272_18600"/>
<feBlend mode="normal" in="SourceGraphic" in2="effect1_dropShadow_272_18600" result="shape"/>
</filter>
<linearGradient id="paint0_linear_272_18600" x1="0" y1="0" x2="23.6662" y2="94.1591" gradientUnits="userSpaceOnUse">
<stop stop-color="#001AFF"/>
<stop offset="1" stop-color="#46D3FF"/>
</linearGradient>
<linearGradient id="paint1_linear_272_18600" x1="0" y1="0" x2="23.6662" y2="94.1591" gradientUnits="userSpaceOnUse">
<stop stop-color="#46B5FF"/>
<stop offset="1" stop-color="#0068FF"/>
</linearGradient>
</defs>
</svg>
