<svg width="80" height="80" viewBox="0 0 80 80" fill="none" xmlns="http://www.w3.org/2000/svg">
<rect x="1" y="1" width="78" height="78" rx="23" fill="url(#paint0_linear_272_18607)" stroke="url(#paint1_linear_272_18607)" stroke-width="2"/>
<g filter="url(#filter0_d_272_18607)">
<path d="M51 30.5H29C26.7909 30.5 25 32.2909 25 34.5V46.5C25 48.7091 26.7909 50.5 29 50.5H41C41.6295 50.5 42.2223 50.7964 42.6 51.3L44.6 53.9667C44.8 54.2333 45.2 54.2333 45.4 53.9667L47.4 51.3C47.7777 50.7964 48.3705 50.5 49 50.5H51C53.2091 50.5 55 48.7091 55 46.5V34.5C55 32.2909 53.2091 30.5 51 30.5Z" fill="white" fill-opacity="0.5" shape-rendering="crispEdges"/>
<path d="M51 29.5H29C26.2386 29.5 24 31.7386 24 34.5V46.5C24 49.2614 26.2386 51.5 29 51.5H41C41.3148 51.5 41.6111 51.6482 41.8 51.9L43.8 54.5667C44.4 55.3667 45.6 55.3667 46.2 54.5667L48.2 51.9C48.3889 51.6482 48.6852 51.5 49 51.5H51C53.7614 51.5 56 49.2614 56 46.5V34.5C56 31.7386 53.7614 29.5 51 29.5Z" stroke="white" stroke-width="2" shape-rendering="crispEdges"/>
</g>
<circle cx="40" cy="40.5" r="2" fill="white"/>
<circle cx="32" cy="40.5" r="2" fill="white"/>
<circle cx="48" cy="40.5" r="2" fill="white"/>
<defs>
<filter id="filter0_d_272_18607" x="17" y="22.5" width="62" height="55.668" filterUnits="userSpaceOnUse" color-interpolation-filters="sRGB">
<feFlood flood-opacity="0" result="BackgroundImageFix"/>
<feColorMatrix in="SourceAlpha" type="matrix" values="0 0 0 0 0 0 0 0 0 0 0 0 0 0 0 0 0 0 127 0" result="hardAlpha"/>
<feOffset dx="8" dy="8"/>
<feGaussianBlur stdDeviation="7"/>
<feComposite in2="hardAlpha" operator="out"/>
<feColorMatrix type="matrix" values="0 0 0 0 0.0352941 0 0 0 0 0.447059 0 0 0 0 1 0 0 0 1 0"/>
<feBlend mode="normal" in2="BackgroundImageFix" result="effect1_dropShadow_272_18607"/>
<feBlend mode="normal" in="SourceGraphic" in2="effect1_dropShadow_272_18607" result="shape"/>
</filter>
<linearGradient id="paint0_linear_272_18607" x1="0" y1="0" x2="23.6662" y2="94.1591" gradientUnits="userSpaceOnUse">
<stop stop-color="#001AFF"/>
<stop offset="1" stop-color="#46D3FF"/>
</linearGradient>
<linearGradient id="paint1_linear_272_18607" x1="0" y1="0" x2="23.6662" y2="94.1591" gradientUnits="userSpaceOnUse">
<stop stop-color="#46B5FF"/>
<stop offset="1" stop-color="#0068FF"/>
</linearGradient>
</defs>
</svg>
